<svg width="91" height="123" viewBox="0 0 91 123" fill="none" xmlns="http://www.w3.org/2000/svg">
<path class="inner" fill-rule="evenodd" clip-rule="evenodd" d="M21.8521 86C15.8708 83.4808 10.5258 79.7935 6.95605 75L83.7857 75C80.216 79.7935 74.871 83.4808 68.8897 86H21.8521Z" fill="#A3D355"/>
<path class="inner" fill-rule="evenodd" clip-rule="evenodd" d="M6.95649 76C4.58499 72.526 2.99697 68.5194 2.52637 64L87.9997 64V65.6013C87.3541 69.4712 85.8737 72.9419 83.7862 76H6.95649Z" fill="#A3D355"/>
<path class="inner" fill-rule="evenodd" clip-rule="evenodd" d="M2.52556 65C2.4294 64.0766 2.3799 63.1317 2.37989 62.1657C2.37987 59.5573 2.37989 59.6161 2.3799 59.6635C2.37991 59.7077 2.37991 59.7419 2.37989 57.5777C2.37988 56.0715 2.41731 54.5433 2.48809 53H87.9997V65H2.52556Z" fill="#A3D355"/>
<path class="inner" fill-rule="evenodd" clip-rule="evenodd" d="M2.48828 54C2.66899 50.0598 3.06707 46.0215 3.61432 42H87.1269C87.4904 44.6708 87.788 47.349 87.9999 50.0009V54H2.48828Z" fill="#A3D355"/>
<path class="inner" fill-rule="evenodd" clip-rule="evenodd" d="M3.61426 43C4.16629 38.9434 4.87011 34.9041 5.65573 31H85.0854C85.871 34.9041 86.5748 38.9434 87.1268 43H3.61426Z" fill="#A3D355"/>
<path class="inner" fill-rule="evenodd" clip-rule="evenodd" d="M5.65527 32C6.50171 27.7937 7.4431 23.7445 8.39189 20H82.3483C83.2971 23.7445 84.2385 27.7937 85.0849 32H5.65527Z" fill="#A3D355"/>
<path class="glass" fill-rule="evenodd" clip-rule="evenodd" d="M4.37892 57.1962C4.37869 37.0615 13.1338 12.1007 16.2033 4H74.5545C77.6239 12.1007 86.3789 37.0615 86.3789 57.1963V58.935V59.0895L86.3789 59.0946V59.0953V59.0959V59.0968V59.097V59.0972V59.0973V59.098V59.0989V59.1041L86.3789 59.1089L86.3789 59.1114V59.1167V59.1181V59.1182V59.1203V59.1208V59.1211L86.3789 59.124L86.3789 59.3705L86.3789 61.4019C86.3789 68.8141 81.8836 74.8578 74.6324 79.2502C67.3624 83.6539 57.8689 86 49.4698 86H49.4507H49.4315H49.4125H49.3934H49.3744H49.3554H49.3365H49.3176H49.2987H49.2799H49.2611H49.2424H49.2236H49.205H49.1863H49.1677H49.1491H49.1306H49.1121H49.0936H49.0752H49.0568H49.0384H49.02H49.0017H48.9835H48.9652H48.947H48.9289H48.9107H48.8926H48.8746H48.8565H48.8385H48.8206H48.8026H48.7847H48.7668H48.749H48.7312H48.7134H48.6957H48.6779H48.6603H48.6426H48.625H48.6074H48.5898H48.5723H48.5548H48.5373H48.5199H48.5025H48.4851H48.4677H48.4504H48.4331H48.4158H48.3986H48.3814H48.3642H48.3471H48.33H48.3129H48.2958H48.2788H48.2618H48.2448H48.2278H48.2109H48.194H48.1771H48.1603H48.1435H48.1267H48.1099H48.0932H48.0764H48.0598H48.0431H48.0265H48.0099H47.9933H47.9767H47.9602H47.9437H47.9272H47.9107H47.8943H47.8779H47.8615H47.8451H47.8288H47.8125H47.7962H47.7799H47.7637H47.7475H47.7313H47.7151H47.6989H47.6828H47.6667H47.6506H47.6346H47.6185H47.6025H47.5865H47.5705H47.5546H47.5387H47.5227H47.5069H47.491H47.4751H47.4593H47.4435H47.4277H47.412H47.3962H47.3805H47.3648H47.3491H47.3334H47.3178H47.3022H47.2865H47.271H47.2554H47.2398H47.2243H47.2088H47.1933H47.1778H47.1623H47.1469H47.1315H47.1161H47.1007H47.0853H47.0699H47.0546H47.0393H47.024H47.0087H46.9934H46.9781H46.9629H46.9477H46.9325H46.9173H46.9021H46.8869H46.8718H46.8566H46.8415H46.8264H46.8113H46.7962H46.7812H46.7661H46.7511H46.7361H46.7211H46.7061H46.6911H46.6761H46.6612H46.6462H46.6313H46.6164H46.6015H46.5866H46.5717H46.5568H46.542H46.5271H46.5123H46.4975H46.4827H46.4679H46.4531H46.4383H46.4235H46.4088H46.394H46.3793H46.3646H46.3498H46.3351H46.3204H46.3058H46.2911H46.2764H46.2618H46.2471H46.2325H46.2178H46.2032H46.1886H46.174H46.1594H46.1448H46.1302H46.1156H46.1011H46.0865H46.072H46.0574H46.0429H46.0283H46.0138H45.9993H45.9848H45.9703H45.9558H45.9413H45.9268H45.9123H45.8978H45.8833H45.8689H45.8544H45.8399H45.8255H45.811H45.7966H45.7822H45.7677H45.7533H45.7388H45.7244H45.71H45.6956H45.6812H45.6668H45.6523H45.6379H45.6235H45.6091H45.5947H45.5803H45.5659H45.5515H45.5372H45.5228H45.5084H45.494H45.4796H45.4652H45.4508H45.4364H45.4221H45.4077H45.3933H45.3789H45.3645H45.3502H45.3358H45.3214H45.307H45.2926H45.2782H45.2638H45.2495H45.2351H45.2207H45.2063H45.1919H45.1775H45.1631H45.1487H45.1343H45.1199H45.1055H45.0911H45.0767H45.0622H45.0478H45.0334H45.019H45.0046H44.9901H44.9757H44.9612H44.9468H44.9323H44.9179H44.9034H44.889H44.8745H44.86H44.8455H44.8311H44.8166H44.8021H44.7876H44.7731H44.7585H44.744H44.7295H44.715H44.7004H44.6859H44.6713H44.6568H44.6422H44.6276H44.613H44.5984H44.5838H44.5692H44.5546H44.54H44.5254H44.5107H44.4961H44.4814H44.4667H44.4521H44.4374H44.4227H44.408H44.3933H44.3785H44.3638H44.3491H44.3343H44.3195H44.3048H44.29H44.2752H44.2604H44.2455H44.2307H44.2159H44.201H44.1861H44.1713H44.1564H44.1415H44.1265H44.1116H44.0967H44.0817H44.0667H44.0518H44.0368H44.0218H44.0067H43.9917H43.9767H43.9616H43.9465H43.9314H43.9163H43.9012H43.8861H43.8709H43.8557H43.8406H43.8254H43.8102H43.7949H43.7797H43.7644H43.7492H43.7339H43.7186H43.7032H43.6879H43.6725H43.6572H43.6418H43.6264H43.6109H43.5955H43.58H43.5645H43.549H43.5335H43.518H43.5024H43.4869H43.4713H43.4557H43.44H43.4244H43.4087H43.393H43.3773H43.3616H43.3459H43.3301H43.3143H43.2985H43.2827H43.2668H43.251H43.2351H43.2192H43.2032H43.1873H43.1713H43.1553H43.1393H43.1233H43.1072H43.0911H43.075H43.0589H43.0427H43.0266H43.0104H42.9941H42.9779H42.9616H42.9453H42.929H42.9127H42.8963H42.8799H42.8635H42.8471H42.8306H42.8142H42.7977H42.7811H42.7646H42.748H42.7314H42.7147H42.6981H42.6814H42.6647H42.6479H42.6312H42.6144H42.5976H42.5807H42.5638H42.5469H42.53H42.5131H42.4961H42.4791H42.462H42.445H42.4279H42.4108H42.3936H42.3764H42.3592H42.342H42.3247H42.3074H42.2901H42.2728H42.2554H42.238H42.2205H42.203H42.1855H42.168H42.1504H42.1329H42.1152H42.0976H42.0799H42.0622H42.0444H42.0266H42.0088H41.991H41.9731H41.9552H41.9373H41.9193H41.9013H41.8833H41.8652H41.8471H41.829H41.8108H41.7926H41.7744H41.7561H41.7378H41.7194H41.7011H41.6827H41.6642H41.6458H41.6273H41.6087H41.5901H41.5715H41.5529H41.5342H41.5155H41.4967H41.4779H41.4591H41.4402H41.4213H41.4024H41.3834H41.3644H41.3454H41.3263H41.3072H41.288C32.8889 86 23.3955 83.6539 16.1255 79.2502C8.8743 74.8578 4.37897 68.8141 4.37892 61.4018L4.37891 59.3705L4.37891 59.1303L4.37891 59.1291L4.37892 59.1253L4.37892 59.1233L4.37892 59.1213L4.37893 59.112L4.37893 58.9351L4.37892 57.1962ZM90.3789 57.1963V57.3172V57.3381V59.1054V60.8749V60.9003V61.4019C90.379 79.9899 67.5509 90 49.4698 90H49.3789C49.3789 90 48.3789 97.3137 48.3789 102C48.3789 106.686 49.3789 114 49.3789 114H52.8789L75.3789 119V123H15.3789V119L37.8789 114H41.3789C41.3789 114 42.3789 106.686 42.3789 102C42.3789 97.3137 41.3789 90 41.3789 90H41.288C23.2069 90 0.379059 79.9899 0.378916 61.4019L0.378912 60.9207L0.378912 60.9011C0.378899 59.0189 0.378911 59.0681 0.378921 59.1082C0.37893 59.1479 0.378938 59.1787 0.378917 57.3177L0.378917 57.291L0.378916 57.1963C0.378685 36.168 9.46992 10.4668 12.5002 2.48418C13.0764 0.966253 14.5304 0 16.154 0H74.6038C76.2274 0 77.6814 0.966263 78.2576 2.48421C81.2878 10.4668 90.3789 36.168 90.3789 57.1963Z" fill="#D9D9D9"/>
</svg>
