<svg width="41" height="159" viewBox="0 0 41 159" fill="none" xmlns="http://www.w3.org/2000/svg">
<path class="inner" fill-rule="evenodd" clip-rule="evenodd" d="M9.03883 99C7.66251 95.5293 6.17785 91.4321 4.84668 87H35.9108C34.5796 91.4321 33.0949 95.5293 31.7186 99H9.03883Z" fill="#E9EB7A"/>
<path class="inner" fill-rule="evenodd" clip-rule="evenodd" d="M5.91815 88C4.85164 83.8683 3.89095 79.4679 3.19141 75H37.5673C36.8677 79.4679 35.907 83.8683 34.8405 88H5.91815Z" fill="#E9EB7A"/>
<path class="inner" fill-rule="evenodd" clip-rule="evenodd" d="M3.19143 76C2.82306 73.6472 2.5271 71.2758 2.32624 68.915C2.16888 67.0656 2.04798 65.084 1.95898 63H38.7998C38.7108 65.084 38.5899 67.0656 38.4325 68.915C38.2317 71.2758 37.9357 73.6472 37.5673 76H3.19143Z" fill="#E9EB7A"/>
<path class="inner" fill-rule="evenodd" clip-rule="evenodd" d="M1.9585 64C1.78673 59.9774 1.73386 55.5729 1.76731 51H38.9905C39.024 55.5729 38.9711 59.9774 38.7993 64H1.9585Z" fill="#E9EB7A"/>
<path class="inner" fill-rule="evenodd" clip-rule="evenodd" d="M1.76758 52C1.79863 47.755 1.90408 43.3647 2.05785 39H38.6481V52H1.76758Z" fill="#E9EB7A"/>
<path class="inner" fill-rule="evenodd" clip-rule="evenodd" d="M2.05762 40C2.21328 35.5816 2.41847 31.1892 2.64615 27H38.1118C38.3394 31.1892 38.5446 35.5816 38.7003 40H2.05762Z" fill="#E9EB7A"/>
<path class="glass" fill-rule="evenodd" clip-rule="evenodd" d="M7.19134 4C6.09444 15.2976 3.11976 49.3816 4.96947 68.0659C5.89419 77.4067 8.8057 87.0163 11.5955 94.5034C14.2469 96.7428 17.228 98 20.3792 98C23.5301 98 26.5108 96.7431 29.162 94.504C31.9519 87.0168 34.8636 77.407 35.7884 68.0659C37.6381 49.3816 34.6635 15.2976 33.5666 4H7.19134ZM37.3882 81.6576C38.4679 77.37 39.3299 72.8946 39.7689 68.46C41.6683 49.2739 38.6236 14.681 37.5419 3.55177C37.3442 1.51744 35.6338 0 33.5899 0H7.16803C5.12412 0 3.41379 1.51743 3.21605 3.55176C2.13431 14.681 -0.910458 49.2739 0.98893 68.46C2.61612 84.8965 10.0539 101.893 12.8493 107.813C12.8546 107.824 12.8599 107.835 12.8653 107.846C13.5199 109.231 13.9156 110 13.9156 110H16.3551H17C17 110 18 122.19 18 130C18 137.81 16.9997 150 16.9997 150H15.3789L0.37893 155V159H40.3789V155L25.3789 150H23.9997C23.9997 150 23 137.81 23 130C23 122.19 24 110 24 110H24.4025H26.8426C26.8426 110 33.5161 97.0358 37.3888 81.656C37.3886 81.6565 37.3884 81.6571 37.3882 81.6576Z" fill="#D9D9D9"/>
</svg>
