<svg width="116" height="149" viewBox="0 0 116 149" fill="none" xmlns="http://www.w3.org/2000/svg">
<path class="inner" fill-rule="evenodd" clip-rule="evenodd" d="M43.5541 57L37.9541 50H77.9541L72.3541 57H43.5541Z" fill="#5BDBE3"/>
<path class="inner" fill-rule="evenodd" clip-rule="evenodd" d="M39.6016 51L34.4629 43H81.4452L76.3065 51H39.6016Z" fill="#5BDBE3"/>
<path class="inner" fill-rule="evenodd" clip-rule="evenodd" d="M34.4629 44L29.3242 36H86.5839L81.4452 44H34.4629Z" fill="#5BDBE3"/>
<path class="inner" fill-rule="evenodd" clip-rule="evenodd" d="M29.3242 37L24.1855 29H91.7226L86.5839 37H29.3242Z" fill="#5BDBE3"/>
<path class="inner" fill-rule="evenodd" clip-rule="evenodd" d="M24.1856 30L19.0469 22H96.8613L91.7226 30H24.1856Z" fill="#5BDBE3"/>
<path class="inner" fill-rule="evenodd" clip-rule="evenodd" d="M19.0469 23L13.9082 15H102L96.8613 23H19.0469Z" fill="#5BDBE3"/>
<path class="glass" fill-rule="evenodd" clip-rule="evenodd" d="M43.0645 49.984L6.27731 4H109.632L73.0146 49.7722C68.7466 54.3269 63.5481 57 57.9393 57C52.4181 57 47.2944 54.4097 43.0645 49.984ZM54.2104 69.8714C53.8784 69.7462 53.5814 69.5333 53.3543 69.2494L0.554321 3.24939C-0.4933 1.93986 0.439049 0 2.11606 0H113.794C115.471 0 116.403 1.93986 115.355 3.24939L67.4095 63.1816L62.099 70H61.9548C61.9548 70 60.9548 91.3316 60.9548 105C60.9548 118.668 61.9548 140 61.9548 140H67.9548L97.9548 145V149H17.9548V145L47.9548 140H53.9548C53.9548 140 54.9548 118.668 54.9548 105C54.9548 91.3316 53.9548 70 53.9548 70H54.3106L54.2104 69.8714Z" fill="#D9D9D9"/>
</svg>
