<svg width="65" height="149" viewBox="0 0 65 149" fill="none" xmlns="http://www.w3.org/2000/svg">
<path class="inner" fill-rule="evenodd" clip-rule="evenodd" d="M9.06488 103C6.84039 101.245 4.99724 99.2005 3.79141 96.9163C3.50902 96.3814 3.24525 95.8265 3 95.2533V88H63V92.5025C62.5136 94.0865 61.9132 95.566 61.2003 96.9163C59.9945 99.2005 58.3133 101.245 56.3205 103H9.06488Z" fill="#E36A25"/>
<path class="inner" fill-rule="evenodd" clip-rule="evenodd" d="M63 74H3V89H63V74Z" fill="#E36A25"/>
<path class="inner" fill-rule="evenodd" clip-rule="evenodd" d="M3 65.4698C3.24564 64.6434 3.50947 63.8181 3.79141 62.9956C4.14827 61.9544 4.49333 60.9579 4.82574 60H60.1694C60.2098 60.117 60.2503 60.2346 60.291 60.3527C60.5844 61.2036 60.8876 62.0833 61.2003 62.9956C61.9165 64.9621 62.5159 66.9487 63 68.9328V75H3V65.4698Z" fill="#E36A25"/>
<path class="inner" fill-rule="evenodd" clip-rule="evenodd" d="M4.47949 61C4.68382 60.4097 4.88372 59.834 5.07899 59.2716C6.89401 54.0441 8.30976 49.9666 9.17933 46H55.8872C56.8073 50.2464 58.3269 54.6542 60.2914 60.3526C60.3651 60.5666 60.4395 60.7824 60.5145 61H4.47949Z" fill="#E36A25"/>
<path class="inner" fill-rule="evenodd" clip-rule="evenodd" d="M8.94922 47C10.0812 42.2926 10.471 37.8603 9.87786 32H55.1355C54.5827 37.741 54.9809 42.2142 56.1139 47H8.94922Z" fill="#E36A25"/>
<path class="inner" fill-rule="evenodd" clip-rule="evenodd" d="M9.97063 33C9.73082 30.155 9.24971 26.9788 8.49736 23.2599C8.11196 21.3548 7.7455 19.6058 7.39746 18H57.5943C57.2463 19.6058 56.8798 21.3548 56.4944 23.2599C55.7465 26.9566 55.274 30.1325 55.0477 33H9.97063Z" fill="#E36A25"/>
<path class="glass" fill-rule="evenodd" clip-rule="evenodd" d="M57.4213 64.2925L57.4337 64.3286L57.4467 64.3644C60.9902 74.0944 61.3501 83.9823 59.2589 91.0667C52.5558 97.8189 43.2662 102 33 102C22.0231 102 12.1626 97.2199 5.38655 89.6278C3.79984 82.7148 4.41641 73.5229 7.58019 64.2926C8.01222 63.0321 8.43212 61.8241 8.83688 60.6596L8.83697 60.6594L8.83699 60.6593C11.0045 54.4236 12.738 49.4365 13.5764 44.332C14.6063 38.0615 14.296 31.7267 12.4227 22.4668C10.5634 13.2761 9.11857 7.57113 8.02037 4H56.9809C55.8827 7.57111 54.4379 13.2761 52.5785 22.4667C50.7587 31.4619 50.455 37.7847 51.4646 44.1046C52.3331 49.5404 54.1736 54.8743 56.5048 61.6303C56.8026 62.4934 57.1085 63.3798 57.4213 64.2925ZM0.559623 82.8083C0.403032 76.5835 1.49844 69.6996 3.79629 62.9956C4.24454 61.6878 4.67417 60.4504 5.08349 59.2716C9.83093 45.5984 11.8467 39.7928 8.50207 23.2599C6.41328 12.9348 4.8808 7.19299 3.82233 4C2.49634 0 1.91425 0 1.91425 0H6.59319H58.408H63.0869C63.0869 0 62.5049 0 61.1789 4C60.1204 7.19299 58.588 12.9348 56.4991 23.2599C53.1742 39.6946 55.2912 45.8353 60.2959 60.3527L60.2964 60.3543C60.5896 61.2047 60.8927 62.0839 61.2052 62.9956C63.8581 70.2802 64.9086 77.8412 64.4347 84.5252C64.4348 84.5252 64.4348 84.5251 64.4348 84.5251C64.4194 84.7429 64.4023 84.9598 64.3836 85.1756C63.9996 89.6155 62.9323 93.6447 61.2052 96.9163C56.9695 104.94 46.8684 110 38 110H37.0281H37C37 110 36 119.142 36 125C36 130.858 36.9996 140 36.9996 140H38.5L53.5 145V149H13.5V145L28.5 140H30C30 140 31.0004 130.858 31.0004 125C31.0004 119.142 30.0004 110 30.0004 110H29.9719H29C21.2401 110 11.0064 106.126 5.73163 99.7822C4.97809 98.8759 4.32575 97.9193 3.79629 96.9163C2.42491 94.3185 1.49252 91.2516 0.989339 87.8813C0.746488 86.2547 0.603598 84.5575 0.55957 82.8082C0.559588 82.8083 0.559605 82.8083 0.559623 82.8083Z" fill="#D9D9D9"/>
</svg>
