<svg width="111" height="149" viewBox="0 0 111 149" fill="none" xmlns="http://www.w3.org/2000/svg">
<path class="inner" fill-rule="evenodd" clip-rule="evenodd" d="M40.3179 70C39.5194 67.2974 39.0032 64.3438 38.4708 61.2972C38.3955 60.8665 38.3199 60.434 38.2432 60H72.9049C72.8281 60.434 72.7525 60.8666 72.6771 61.2973C72.1445 64.3439 71.628 67.2974 70.8293 70H40.3179Z" fill="#8170E4"/>
<path class="inner" fill-rule="evenodd" clip-rule="evenodd" d="M38.2433 61C37.6565 57.6828 37.0015 54.283 35.9014 51H75.2478C74.1475 54.283 73.4921 57.6828 72.9051 61H38.2433Z" fill="#8170E4"/>
<path class="inner" fill-rule="evenodd" clip-rule="evenodd" d="M35.903 52C34.7119 48.4454 32.999 45.0278 30.2861 42H80.8669C78.154 45.0278 76.4409 48.4454 75.2495 52H35.903Z" fill="#8170E4"/>
<path class="inner" fill-rule="evenodd" clip-rule="evenodd" d="M30.2848 43C29.5975 42.2329 28.8459 41.4907 28.0224 40.7778C24.4764 37.7078 22.2412 36.2851 20.3516 35.0824C19.2853 34.4037 18.3291 33.795 17.3096 33H93.8404C92.8208 33.7951 91.8646 34.4038 90.7983 35.0825C88.909 36.2852 86.6739 37.708 83.1281 40.7778C82.3046 41.4907 81.553 42.2329 80.8656 43H30.2848Z" fill="#8170E4"/>
<path class="inner" fill-rule="evenodd" clip-rule="evenodd" d="M17.3084 34C15.617 32.6811 13.7511 30.8491 10.919 27.3333C10.1041 26.3216 9.37635 25.1993 8.72656 24H102.421C101.771 25.1993 101.043 26.3216 100.228 27.3333C97.3963 30.8491 95.5305 32.6811 93.8392 34H17.3084Z" fill="#8170E4"/>
<path class="inner" fill-rule="evenodd" clip-rule="evenodd" d="M8.72748 25C7.08934 21.9766 5.94648 18.4639 5.14941 15H106C105.203 18.4639 104.06 21.9766 102.422 25H8.72748Z" fill="#8170E4"/>
<path class="glass" fill-rule="evenodd" clip-rule="evenodd" d="M4.66477 4C4.87105 6.74154 5.3384 10.493 6.37371 14.2371C7.46919 18.1988 9.10534 21.7992 11.4209 24.2572C15.179 28.2466 17.0394 29.5019 18.9732 30.6017C19.3915 30.8396 19.8335 31.0799 20.3093 31.3387L20.3093 31.3387L20.3094 31.3387C22.3126 32.4279 24.9165 33.8438 28.8897 36.7851C38.0322 43.5532 39.9388 52.9906 41.4074 60.2606L41.4075 60.2611L41.5162 60.7987C44.6644 65.5478 49.7711 68.6353 55.5354 68.6353C61.2535 68.6353 66.3244 65.5971 69.4784 60.9128C69.522 60.698 69.5659 60.481 69.6101 60.2622L69.6105 60.2603C71.0799 52.9903 72.9874 43.5531 82.1297 36.7851C86.1027 33.8439 88.7065 32.4281 90.7094 31.3389C91.1853 31.0801 91.6273 30.8398 92.0458 30.6018C93.9793 29.5019 95.8395 28.2467 99.5978 24.2572C101.913 21.7992 103.549 18.1988 104.645 14.2371C105.68 10.493 106.148 6.74155 106.354 4H4.66477ZM4.44077 0C2.25858 0 0.497631 1.74497 0.648694 3.92192C1.05413 9.76464 2.60889 20.7365 8.50932 27C13.2869 32.0716 15.452 33.25 18.4361 34.8741C20.4249 35.9566 22.7775 37.2371 26.5097 40C34.3706 45.8193 36.0008 53.7959 37.5074 61.1675C39.2404 69.6466 40.8098 77.3253 51.5093 80C51.5536 80.0111 51.5976 80.022 51.6414 80.0327C51.6882 80.8941 52.6396 98.572 52.6396 110C52.6396 121.716 51.6396 140 51.6396 140H45.6396L15.6396 145V149H95.6396V145L65.6396 140H59.6396C59.6396 140 58.6396 121.716 58.6396 110C58.6396 98.2843 59.6396 80 59.6396 80H59.5078C70.2064 77.3253 71.7766 69.6467 73.5104 61.1676C75.0177 53.796 76.6488 45.8194 84.5097 40C88.2418 37.2372 90.5942 35.9567 92.5828 34.8743C95.5668 33.25 97.7316 32.0717 102.509 27C108.41 20.7365 109.965 9.76465 110.37 3.92193C110.521 1.74497 108.76 0 106.578 0H4.44077Z" fill="#D9D9D9"/>
</svg>
