<svg width="71" height="177" viewBox="0 0 71 177" fill="none" xmlns="http://www.w3.org/2000/svg">
<path class="inner" fill-rule="evenodd" clip-rule="evenodd" d="M20.5205 134L20.2705 130L18.2705 117H52.2705L50.2705 130L50.0205 134H20.5205Z" fill="#64D98C"/>
<path class="inner" fill-rule="evenodd" clip-rule="evenodd" d="M19.5977 118L17.1865 100H53.3539L50.9427 118H19.5977Z" fill="#64D98C"/>
<path class="inner" fill-rule="evenodd" clip-rule="evenodd" d="M17.1865 101L14.7754 83H55.7651L53.3539 101H17.1865Z" fill="#64D98C"/>
<path class="inner" fill-rule="evenodd" clip-rule="evenodd" d="M14.7744 84L12.3633 66H58.1753L55.7641 84H14.7744Z" fill="#64D98C"/>
<path class="inner" fill-rule="evenodd" clip-rule="evenodd" d="M12.3653 67L9.9541 49H60.5884L58.1773 67H12.3653Z" fill="#64D98C"/>
<path class="inner" fill-rule="evenodd" clip-rule="evenodd" d="M9.95413 50L7.54297 32H62.9996L60.5884 50H9.95413Z" fill="#64D98C"/>
<path class="glass" fill-rule="evenodd" clip-rule="evenodd" d="M54.4229 103L50.2695 130L49.2695 146C49.2695 146 49.0552 146.25 48.6624 146.625C47.4837 147.75 44.6978 150 41.2695 150C41.2695 150 40.2695 155.464 40.2695 159C40.2695 162.536 41.2695 168 41.2695 168H45.2695L65.2695 173V177H5.26953V173L25.2695 168H29.2695C29.2695 168 30.2695 162.515 30.2695 159C30.2695 155.485 29.2695 150 29.2695 150C28.9838 150 28.7026 149.984 28.4264 149.955C24.2833 149.516 21.2695 146 21.2695 146L20.2695 130L16.1152 103L0.884888 4L0.269531 0H4.31659H66.2225H70.2695L69.6542 4L54.4229 103ZM47.0954 124.326C43.783 130.408 39.6938 134 35.2691 134C30.8449 134 26.7562 130.409 23.444 124.328L4.93201 4H65.6071L47.0954 124.326Z" fill="#D9D9D9"/>
</svg>
