<svg width="76" height="152" viewBox="0 0 76 152" fill="none" xmlns="http://www.w3.org/2000/svg">
<path class="inner" fill-rule="evenodd" clip-rule="evenodd" d="M69.5489 64H6.20996C8.31823 67.0163 10.8855 69.7158 13.7201 72H62.0387C64.8733 69.7158 67.4406 67.0163 69.5489 64Z" fill="#B33131"/>
<path class="inner" fill-rule="evenodd" clip-rule="evenodd" d="M71.771 56H3.9668C4.91857 59.1988 6.26195 62.2191 7.89707 65H67.8407C69.4759 62.2191 70.8193 59.1988 71.771 56Z" fill="#B33131"/>
<path class="inner" fill-rule="evenodd" clip-rule="evenodd" d="M73.0006 51.359V48H2.42383C2.57496 51.1145 3.11372 54.1291 3.96792 57H71.7721C72.3154 55.1741 72.7311 53.2899 73.0006 51.359Z" fill="#B33131"/>
<path class="inner" fill-rule="evenodd" clip-rule="evenodd" d="M2.42258 49H73V40H2.55463C2.44065 42.3274 2.37889 44.7287 2.37891 47.2C2.37891 47.8035 2.39364 48.4036 2.42258 49Z" fill="#B33131"/>
<path class="inner" fill-rule="evenodd" clip-rule="evenodd" d="M72.4383 32L3.27793 32C2.95788 34.8591 2.70932 37.8623 2.55566 41H73.0002V38.0669C72.852 35.9823 72.6621 33.9587 72.4383 32Z" fill="#B33131"/>
<path class="inner" fill-rule="evenodd" clip-rule="evenodd" d="M71.1141 24L4.5798 24C4.07858 26.8125 3.63366 29.8169 3.27734 33H72.4377C72.0747 29.824 71.6225 26.8185 71.1141 24Z" fill="#B33131"/>
<path class="glass" fill-rule="evenodd" clip-rule="evenodd" d="M13.6746 4C11.0355 9.23937 4.37877 24.6232 4.37891 46.4C4.37896 54.3204 8.37276 61.7204 14.3231 67.2373C14.5457 67.4436 14.7703 67.6467 14.9969 67.8465C21.3285 70.4509 29.2644 72 37.8787 72C46.4934 72 54.4297 70.4507 60.7614 67.8461C60.9879 67.6464 61.2123 67.4434 61.4347 67.2373C67.3851 61.7204 71.3789 54.3204 71.3789 46.4C71.3789 24.9948 64.7064 9.3574 62.0583 4H13.6746ZM47.4052 79.3186C61.0752 76.1911 75.3789 62.6646 75.3789 46.4C75.3789 23.8973 68.2823 7.5095 65.5366 2.01113C64.9041 0.744367 63.6065 0 62.1906 0H13.5377C12.139 0 10.8526 0.726414 10.2177 1.9727C7.46942 7.36714 0.378759 23.5037 0.378906 46.4C0.37894 51.5797 1.82966 56.4818 4.24861 60.8587C4.24842 60.8585 4.24824 60.8583 4.24805 60.8581C9.28497 69.9725 18.5204 76.8097 27.598 79.1356C28.8274 79.4506 30.054 79.6829 31.2668 79.8269C32.2313 79.9413 33.187 80 34.1287 80H34.1289H34.3789C34.3789 80 35.3789 99.1985 35.3789 111.5C35.3789 123.802 34.3789 143 34.3789 143H30.8789L8.37891 148V152H68.3789V148L45.8789 143H42.3789C42.3789 143 41.3789 123.802 41.3789 111.5C41.3789 99.1985 42.3789 80 42.3789 80H41.6289C43.5124 80 45.4523 79.7654 47.4052 79.3186Z" fill="#D9D9D9"/>
</svg>
