<svg width="28" height="28" viewBox="0 0 28 28" fill="none" xmlns="http://www.w3.org/2000/svg">
<path fill-rule="evenodd" clip-rule="evenodd" d="M0.71977 6.27496C0.433881 5.20803 1.06704 4.11136 2.13399 3.82547L13.7251 0.719646C14.792 0.433763 15.8887 1.06693 16.1746 2.13386L19.2804 13.725C19.5663 14.7919 18.9331 15.8886 17.8662 16.1745L6.27508 19.2803C5.20816 19.5662 4.11148 18.933 3.8256 17.8661L0.71977 6.27496ZM11.9319 9.48233C12.2178 10.5493 11.5847 11.6459 10.5177 11.9318C9.4508 12.2177 8.35412 11.5845 8.06823 10.5176C7.78236 9.45067 8.41552 8.354 9.48245 8.06811C10.5494 7.78223 11.6461 8.4154 11.9319 9.48233ZM8.71974 21.725L9.01684 20.6161L11.2754 20.011C11.2328 20.1064 11.1972 20.2065 11.1692 20.3107C10.8834 21.3777 11.5165 22.4743 12.5834 22.7602C13.6504 23.0461 14.7471 22.413 15.0329 21.346C15.2538 20.5218 14.9261 19.6798 14.2737 19.2076L16.1302 18.7101C16.351 19.2899 16.8374 19.759 17.4824 19.9318C18.5494 20.2177 19.646 19.5845 19.9319 18.5176C20.0076 18.2353 20.0189 17.9509 19.9748 17.68L20.3154 17.5887C20.8559 17.4439 21.2851 17.091 21.5399 16.6393C21.7708 16.8535 22.0559 17.0162 22.3814 17.1034C23.4483 17.3893 24.545 16.7561 24.8309 15.6892C25.1168 14.6222 24.4836 13.5256 23.4167 13.2397C22.6525 13.0349 21.8732 13.3016 21.3873 13.8614L20.4531 10.375L25.8662 11.8255C26.9331 12.1113 27.5663 13.208 27.2804 14.275L24.1746 25.8661C23.8887 26.933 22.792 27.5662 21.7251 27.2803L10.134 24.1744C9.06703 23.8886 8.43387 22.7919 8.71974 21.725Z" fill="#D9D9D9"/>
</svg>
