<svg width="90" height="90" viewBox="0 0 90 90" fill="none" xmlns="http://www.w3.org/2000/svg">
<path fill-rule="evenodd" clip-rule="evenodd" d="M44.5791 86.1768C67.4989 86.1768 86.0791 67.5966 86.0791 44.6768C86.0791 21.7569 67.4989 3.17676 44.5791 3.17676C21.6593 3.17676 3.0791 21.7569 3.0791 44.6768C3.0791 67.5966 21.6593 86.1768 44.5791 86.1768ZM44.5791 89.1768C69.1558 89.1768 89.0791 69.2534 89.0791 44.6768C89.0791 20.1001 69.1558 0.176758 44.5791 0.176758C20.0024 0.176758 0.0791016 20.1001 0.0791016 44.6768C0.0791016 69.2534 20.0024 89.1768 44.5791 89.1768ZM44.0791 21.1768H47.0791V43.6768H68.5791V46.6768H47.0791V68.1768H44.0791V46.6768H21.5791V43.6768H44.0791V21.1768Z" fill="#202020"/>
</svg>
