<svg width="28" height="28" viewBox="0 0 28 28" fill="none" xmlns="http://www.w3.org/2000/svg">
<path fill-rule="evenodd" clip-rule="evenodd" d="M2.32456 6C2.11577 4.8019 2 3.4733 2 2H6H22H26C26 3.4733 25.8842 4.8019 25.6754 6C24.3094 13.8389 18.9611 16.0916 16 16.7389V22H20V26H16H12H8V22H12V16.7389C9.0389 16.0916 3.69063 13.8389 2.32456 6ZM14 12.9983C14.0353 12.9964 14.0893 12.9929 14.1599 12.9866C14.3554 12.9691 14.6687 12.9311 15.0592 12.8497C15.8531 12.6843 16.8802 12.3579 17.88 11.733C19.1901 10.9142 20.8503 9.35024 21.6002 6H6.39981C7.14972 9.35024 8.80993 10.9142 10.12 11.733C11.1198 12.3579 12.1469 12.6843 12.9408 12.8497C13.3313 12.9311 13.6446 12.9691 13.8401 12.9866C13.9107 12.9929 13.9647 12.9964 14 12.9983Z" fill="#404040"/>
</svg>
