<svg width="28" height="28" viewBox="0 0 28 28" fill="none" xmlns="http://www.w3.org/2000/svg">
<path fill-rule="evenodd" clip-rule="evenodd" d="M16.78 5.46L16.5 5.5V7L16.72 7.04L18.9776 7.45047L23.6488 3.53081L26.22 6.59499L4.12584 25.1342L1.55469 22.07L6.52119 17.9026L6.04003 8.76061L6 8L7.61333 7.70667L11.28 7.04L11.5 7V5.5L11.22 5.46L8 5L8.18281 3.53755L8.5 1H19.5L19.8172 3.53755L20 5L16.78 5.46ZM10.3573 14.6837L14.9953 10.792L14 10.611L12.2155 10.9355L10.1795 11.3057L10.3573 14.6837ZM17.4051 19.197L21.5958 15.6807L21 27H8.10589L12.8729 23H17.205L17.4051 19.197Z" fill="#D9D9D9"/>
</svg>
