<svg width="32" height="32" viewBox="0 0 32 32" fill="none" xmlns="http://www.w3.org/2000/svg">
<path fill-rule="evenodd" clip-rule="evenodd" d="M16 3C8.8203 3 3 8.8203 3 16C3 23.1797 8.8203 29 16 29C23.1797 29 29 23.1797 29 16C29 8.8203 23.1797 3 16 3ZM16 0C7.16345 -2.17128e-06 2.17128e-06 7.16344 0 16C0 24.8366 7.16344 32 16 32C24.8366 32 32 24.8366 32 16C32 7.16344 24.8366 0 16 0ZM15.9999 25.0547L15.1177 24.4131L6.31767 18.0131L8.08218 15.5868L15.9999 21.3452L23.9177 15.5868L25.6822 18.0131L16.8822 24.4131L15.9999 25.0547ZM15.1177 18.0132L15.9999 18.6548L16.8822 18.0132L25.6822 11.6132L23.9177 9.18694L15.9999 14.9453L8.08218 9.18694L6.31767 11.6132L15.1177 18.0132Z" fill="#D9D9D9"/>
</svg>
