<svg width="32" height="32" viewBox="0 0 32 32" fill="none" xmlns="http://www.w3.org/2000/svg">
<path fill-rule="evenodd" clip-rule="evenodd" d="M29 16C29 8.8203 23.1797 3 16 3C8.8203 3 3 8.8203 3 16C3 23.1797 8.8203 29 16 29C23.1797 29 29 23.1797 29 16ZM32 16C32 7.16344 24.8366 0 16 0C7.16344 0 0 7.16344 0 16C0 24.8366 7.16344 32 16 32C24.8366 32 32 24.8366 32 16ZM16.8823 21.2131L16.0001 21.8547L15.1178 21.2131L6.31782 14.8131L8.08233 12.3869L16.0001 18.1453L23.9178 12.3869L25.6823 14.8131L16.8823 21.2131Z" fill="#D9D9D9"/>
</svg>
