<svg width="28" height="28" viewBox="0 0 28 28" fill="none" xmlns="http://www.w3.org/2000/svg">
<path fill-rule="evenodd" clip-rule="evenodd" d="M6 5H22V12H6V5ZM2 12V5C2 2.79086 3.79086 1 6 1H22C24.2091 1 26 2.79086 26 5V12V16V23C26 25.2091 24.2091 27 22 27H6C3.79086 27 2 25.2091 2 23V16V12ZM22 16H6L6 23H22V16Z" fill="#D9D9D9"/>
<path fill-rule="evenodd" clip-rule="evenodd" d="M6 5H22V12H6V5ZM2 12V5C2 2.79086 3.79086 1 6 1H22C24.2091 1 26 2.79086 26 5V12V16V23C26 25.2091 24.2091 27 22 27H6C3.79086 27 2 25.2091 2 23V16V12ZM22 16H6L6 23H22V16Z" fill="#D9D9D9"/>
</svg>
