<svg width="28" height="28" viewBox="0 0 28 28" fill="none" xmlns="http://www.w3.org/2000/svg">
<path fill-rule="evenodd" clip-rule="evenodd" d="M17 8C17 9.65685 15.6569 11 14 11C12.3431 11 11 9.65685 11 8C11 6.34315 12.3431 5 14 5C15.6569 5 17 6.34315 17 8ZM19.4748 12.3624C20.4294 11.166 21 9.64963 21 8C21 4.13401 17.866 1 14 1C10.134 1 7 4.13401 7 8C7 9.64963 7.57062 11.166 8.52525 12.3624C5.30608 14.0931 3.11199 17.303 3.00416 21H3V21.2857V24C3 24.0437 3.0014 24.0871 3.00416 24.1301C3.02441 24.4455 3.11781 24.7411 3.26756 25C3.61337 25.5978 4.25972 26 5 26H23C23.7403 26 24.3866 25.5978 24.7324 25C24.8822 24.7411 24.9756 24.4455 24.9958 24.1301C24.9986 24.0871 25 24.0437 25 24V21.2857V21H24.9958C24.888 17.303 22.6939 14.0931 19.4748 12.3624ZM14 15C9.95084 15 7.09444 17.963 7.00246 21.1166L7 21.201V21.2857V22H21V21.2857V21.201L20.9975 21.1166C20.9056 17.963 18.0492 15 14 15Z" fill="#404040"/>
</svg>
