<svg width="26" height="26" viewBox="0 0 26 26" fill="none" xmlns="http://www.w3.org/2000/svg">
<path fill-rule="evenodd" clip-rule="evenodd" d="M19 11.5C19 15.6421 15.6421 19 11.5 19C7.35786 19 4 15.6421 4 11.5C4 7.35786 7.35786 4 11.5 4C15.6421 4 19 7.35786 19 11.5ZM18.0943 20.9227C16.2273 22.2318 13.9533 23 11.5 23C5.14873 23 0 17.8513 0 11.5C0 5.14873 5.14873 0 11.5 0C17.8513 0 23 5.14873 23 11.5C23 13.9533 22.2318 16.2273 20.9227 18.0943L25.5392 22.7108L22.7108 25.5392L18.0943 20.9227Z" fill="#D9D9D9"/>
</svg>
