<svg width="32" height="32" viewBox="0 0 32 32" fill="none" xmlns="http://www.w3.org/2000/svg">
<path d="M13.5 29.3334C13.1667 29.3334 12.8778 29.2222 12.6334 29C12.3889 28.7778 12.2445 28.5 12.2 28.1667L11.8 25.0667C11.5112 24.9556 11.2389 24.8222 10.9834 24.6667C10.7278 24.5111 10.4778 24.3445 10.2334 24.1667L7.33338 25.3667C7.02227 25.5 6.71115 25.5167 6.40004 25.4167C6.08893 25.3167 5.84449 25.1222 5.66671 24.8334L3.20004 20.5334C3.02227 20.2445 2.96671 19.9334 3.03338 19.6C3.10004 19.2667 3.26671 19 3.53338 18.8L6.03338 16.9C6.01115 16.7445 6.00004 16.5945 6.00004 16.45V15.55C6.00004 15.4056 6.01115 15.2556 6.03338 15.1L3.53338 13.2C3.26671 13 3.10004 12.7334 3.03338 12.4C2.96671 12.0667 3.02227 11.7556 3.20004 11.4667L5.66671 7.16669C5.84449 6.8778 6.08893 6.68335 6.40004 6.58335C6.71115 6.48335 7.02227 6.50002 7.33338 6.63335L10.2334 7.83335C10.4778 7.65558 10.7334 7.48891 11 7.33335C11.2667 7.1778 11.5334 7.04446 11.8 6.93335L12.2 3.83335C12.2445 3.50002 12.3889 3.22224 12.6334 3.00002C12.8778 2.7778 13.1667 2.66669 13.5 2.66669H18.5C18.8334 2.66669 19.1223 2.7778 19.3667 3.00002C19.6112 3.22224 19.7556 3.50002 19.8 3.83335L20.2 6.93335C20.4889 7.04446 20.7612 7.1778 21.0167 7.33335C21.2723 7.48891 21.5223 7.65558 21.7667 7.83335L24.6667 6.63335C24.9778 6.50002 25.2889 6.48335 25.6 6.58335C25.9112 6.68335 26.1556 6.8778 26.3334 7.16669L28.8 11.4667C28.9778 11.7556 29.0334 12.0667 28.9667 12.4C28.9 12.7334 28.7334 13 28.4667 13.2L25.9667 15.1C25.9889 15.2556 26 15.4056 26 15.55V16.45C26 16.5945 25.9778 16.7445 25.9334 16.9L28.4334 18.8C28.7 19 28.8667 19.2667 28.9334 19.6C29 19.9334 28.9445 20.2445 28.7667 20.5334L26.3 24.8C26.1223 25.0889 25.8723 25.2889 25.55 25.4C25.2278 25.5111 24.9112 25.5 24.6 25.3667L21.7667 24.1667C21.5223 24.3445 21.2667 24.5111 21 24.6667C20.7334 24.8222 20.4667 24.9556 20.2 25.0667L19.8 28.1667C19.7556 28.5 19.6112 28.7778 19.3667 29C19.1223 29.2222 18.8334 29.3334 18.5 29.3334H13.5ZM16.0667 20.6667C17.3556 20.6667 18.4556 20.2111 19.3667 19.3C20.2778 18.3889 20.7334 17.2889 20.7334 16C20.7334 14.7111 20.2778 13.6111 19.3667 12.7C18.4556 11.7889 17.3556 11.3334 16.0667 11.3334C14.7556 11.3334 13.65 11.7889 12.75 12.7C11.85 13.6111 11.4 14.7111 11.4 16C11.4 17.2889 11.85 18.3889 12.75 19.3C13.65 20.2111 14.7556 20.6667 16.0667 20.6667Z" fill="#D9D9D9"/>
</svg>
