<svg width="92" height="121" viewBox="0 0 92 121" fill="none" xmlns="http://www.w3.org/2000/svg">
<path fill-rule="evenodd" clip-rule="evenodd" d="M34.4246 46.5159L29.9373 40.9067H61.9899L57.5025 46.5159H34.4246Z" fill="#404040"/>
<path fill-rule="evenodd" clip-rule="evenodd" d="M14.7864 19.2711L10.6687 12.8606H81.2578L77.1401 19.2711H14.7864Z" fill="#404040"/>
<path fill-rule="evenodd" clip-rule="evenodd" d="M18.9041 24.8803L14.7864 18.4697H77.1401L73.0224 24.8803H18.9041Z" fill="#404040"/>
<path fill-rule="evenodd" clip-rule="evenodd" d="M23.0218 30.4896L18.9041 24.0791H73.0223L68.9046 30.4896H23.0218Z" fill="#404040"/>
<path fill-rule="evenodd" clip-rule="evenodd" d="M27.1396 36.0988L23.0219 29.6882H68.9047L64.787 36.0988H27.1396Z" fill="#404040"/>
<path fill-rule="evenodd" clip-rule="evenodd" d="M31.2572 41.7079L27.1395 35.2974H64.787L60.6693 41.7079H31.2572Z" fill="#404040"/>
<path fill-rule="evenodd" clip-rule="evenodd" d="M37.2816 43.6835L6.20749 4.84082H85.7204L54.6769 43.6452C52.0183 45.4889 49.0638 46.516 45.9516 46.516C42.8609 46.516 39.9258 45.5031 37.2816 43.6835ZM42.9102 56.7617C42.6202 56.6333 42.3613 56.4362 42.1582 56.1823L0.484497 4.09021C-0.563125 2.78068 0.369226 0.84082 2.04624 0.84082H89.8817C91.5587 0.84082 92.491 2.78068 91.4434 4.09021L53.5462 51.4617L49.2848 56.9332H49.1692C49.1657 57.0075 48.3679 74.0502 48.3679 84.979C48.3679 95.9317 49.1692 113.025 49.1692 113.025H53.9771L78.0166 117.032V120.237H13.9113V117.032L37.9508 113.025H42.7587C42.7587 113.025 43.56 95.9317 43.56 84.979C43.56 74.0263 42.7587 56.9329 42.7587 56.9329H43.0435L42.9102 56.7617Z" fill="#404040"/>
</svg>
