<svg width="32" height="32" viewBox="0 0 32 32" fill="none" xmlns="http://www.w3.org/2000/svg">
<path fill-rule="evenodd" clip-rule="evenodd" d="M29 16C29 23.1797 23.1797 29 16 29C8.8203 29 3 23.1797 3 16C3 8.8203 8.8203 3 16 3C23.1797 3 29 8.8203 29 16ZM32 16C32 24.8366 24.8366 32 16 32C7.16344 32 0 24.8366 0 16C0 7.16344 7.16344 0 16 0C24.8366 0 32 7.16344 32 16ZM16.8823 10.7869L16.0001 10.1453L15.1178 10.7869L6.31782 17.1869L8.08233 19.6131L16.0001 13.8547L23.9178 19.6131L25.6823 17.1869L16.8823 10.7869Z" fill="#D9D9D9"/>
</svg>
