<svg width="32" height="32" viewBox="0 0 32 32" fill="none" xmlns="http://www.w3.org/2000/svg">
<path fill-rule="evenodd" clip-rule="evenodd" d="M16 29C23.1797 29 29 23.1797 29 16C29 8.8203 23.1797 3 16 3C8.8203 3 3 8.8203 3 16C3 23.1797 8.8203 29 16 29ZM16 32C24.8366 32 32 24.8366 32 16C32 7.16344 24.8366 0 16 0C7.16344 0 0 7.16344 0 16C0 24.8366 7.16344 32 16 32ZM16.0001 6.9453L16.8823 7.58694L25.6823 13.9869L23.9178 16.4132L16.0001 10.6548L8.08233 16.4132L6.31782 13.9869L15.1178 7.58694L16.0001 6.9453ZM16.8823 13.9868L16.0001 13.3452L15.1178 13.9868L6.31782 20.3868L8.08233 22.8131L16.0001 17.0547L23.9178 22.8131L25.6823 20.3868L16.8823 13.9868Z" fill="#D9D9D9"/>
</svg>
