<svg width="83" height="230" viewBox="0 0 83 230" fill="none" xmlns="http://www.w3.org/2000/svg">
<path fill-rule="evenodd" clip-rule="evenodd" d="M47.2773 5.5H23.2773V77.5L0.777344 114.5L3.10793 222.173C3.20208 226.523 6.75524 230 11.1061 230H59.4486C63.7994 230 67.3526 226.523 67.4468 222.173L69.7773 114.5L47.2773 77.5V5.5Z" fill="#1D1D1D"/>
<rect width="24" height="5" transform="matrix(1 0 0 -1 23.2773 5.5)" fill="#8A6C3E"/>
<path fill-rule="evenodd" clip-rule="evenodd" d="M7.5791 127.065L15.6624 142.233C20.8696 139.906 27.6393 138.5 35.0398 138.5C42.5654 138.5 49.4387 139.954 54.6801 142.352L62.7777 127.157C54.976 123.281 45.415 121 35.0856 121C24.8379 121 15.3466 123.245 7.5791 127.065ZM82.6846 154.218C82.6852 154.147 82.6855 154.076 82.6855 154.004C82.6855 153.933 82.6852 153.862 82.6846 153.791V154.218Z" fill="#C34444"/>
<ellipse cx="35.2773" cy="155.75" rx="25.5" ry="13.25" fill="#D9D9D9"/>
</svg>
