<svg width="69" height="220" viewBox="0 0 69 220" fill="none" xmlns="http://www.w3.org/2000/svg">
<path d="M17 0H52C50 40 52 40 52 40H17C17 40 19 40 17 0Z" fill="#1D1D24"/>
<path fill-rule="evenodd" clip-rule="evenodd" d="M50 40H19L15 52.5L0 70V212C0 216.418 3.58172 220 8 220H61C65.4183 220 69 216.418 69 212V70L54 52.5L50 40Z" fill="#3F9CA2"/>
<mask id="path-3-inside-1_282_301" fill="white">
<path fill-rule="evenodd" clip-rule="evenodd" d="M57.5 85.5C57.5 79.9772 47.2025 75.5 34.5 75.5C21.7975 75.5 11.5 79.9772 11.5 85.5V206.5C11.5 208.709 13.2909 210.5 15.5 210.5H53.5C55.7091 210.5 57.5 208.709 57.5 206.5V85.5Z"/>
</mask>
<path fill-rule="evenodd" clip-rule="evenodd" d="M57.5 85.5C57.5 79.9772 47.2025 75.5 34.5 75.5C21.7975 75.5 11.5 79.9772 11.5 85.5V206.5C11.5 208.709 13.2909 210.5 15.5 210.5H53.5C55.7091 210.5 57.5 208.709 57.5 206.5V85.5Z" fill="#D9D9D9"/>
<path d="M34.5 83.5C40.0206 83.5 44.6368 84.4886 47.5736 85.7655C49.0547 86.4094 49.7481 86.9699 49.9583 87.1859C50.1321 87.3646 49.5 86.7837 49.5 85.5H65.5C65.5 81.4548 63.5807 78.2432 61.4268 76.0292C59.3092 73.8524 56.6344 72.2581 53.9533 71.0924C48.5657 68.75 41.682 67.5 34.5 67.5V83.5ZM19.5 85.5C19.5 86.7837 18.8679 87.3646 19.0417 87.1859C19.2519 86.9699 19.9453 86.4094 21.4264 85.7655C24.3632 84.4886 28.9794 83.5 34.5 83.5V67.5C27.318 67.5 20.4343 68.75 15.0467 71.0924C12.3656 72.2581 9.69078 73.8524 7.5732 76.0292C5.41932 78.2432 3.5 81.4548 3.5 85.5H19.5ZM19.5 206.5V85.5H3.5V206.5H19.5ZM53.5 202.5H15.5V218.5H53.5V202.5ZM49.5 85.5V206.5H65.5V85.5H49.5ZM53.5 218.5C60.1274 218.5 65.5 213.127 65.5 206.5H49.5C49.5 204.291 51.2909 202.5 53.5 202.5V218.5ZM3.5 206.5C3.5 213.127 8.87258 218.5 15.5 218.5V202.5C17.7091 202.5 19.5 204.291 19.5 206.5H3.5Z" fill="#8A714C" mask="url(#path-3-inside-1_282_301)"/>
</svg>
