<svg width="110" height="193" viewBox="0 0 110 193" fill="none" xmlns="http://www.w3.org/2000/svg">
<path d="M0 123C0 83 38.9935 83 38.9935 83C38.9935 83 35.7108 70.1376 36.9938 62C38.1402 54.7292 40.3673 51.6788 41.993 44.5C44.2787 34.4068 43.9926 18 43.9926 18H65.9889C65.9889 18 65.7029 34.4068 67.9886 44.5C69.6143 51.6788 71.8414 54.7292 72.9878 62C74.2708 70.1376 70.9881 83 70.9881 83C70.9881 83 110.981 83 109.982 123C109.396 146.424 109.982 159.569 109.982 183C109.982 188 104.982 193 99.9832 193C64.8419 193 14.9975 193 9.99833 193C4.99916 193 0 188 0 183C0 159.569 0 147.5 0 123Z" fill="#CC5935"/>
<rect x="43" width="24" height="18" fill="#A6362F"/>
<path fill-rule="evenodd" clip-rule="evenodd" d="M65.9996 18H43.9996C43.9996 18 44.2857 34.4068 41.9996 44.5C41.5189 46.6222 40.9857 48.3837 40.4434 50H69.5559C69.0135 48.3837 68.4803 46.6222 67.9996 44.5C65.7135 34.4068 65.9996 18 65.9996 18Z" fill="#D9D9D9"/>
<path fill-rule="evenodd" clip-rule="evenodd" d="M67.0534 39L42.9457 39C42.6936 40.9394 42.3827 42.8084 41.9996 44.5C41.7091 45.7826 41.3994 46.9334 41.0801 48H68.9191C68.5998 46.9334 68.2901 45.7826 67.9996 44.5C67.6164 42.8084 67.3055 40.9394 67.0534 39Z" fill="#A6362F"/>
<rect x="14" y="134" width="82" height="45" rx="1" fill="#D9D9D9"/>
<rect x="19" y="142" width="72" height="29" rx="1" fill="#8A6C3E"/>
<circle cx="55" cy="106" r="15" fill="#A6362F"/>
</svg>
