<svg width="70" height="216" viewBox="0 0 70 216" fill="none" xmlns="http://www.w3.org/2000/svg">
<path d="M23.1855 0.5H47.1855V40.5H23.1855V0.5Z" fill="#8A6C3E"/>
<path fill-rule="evenodd" clip-rule="evenodd" d="M47.1855 40.5H23.1855V42.723C21.6331 43.1847 20.6855 43.777 20.6855 44.5V48.5L0.685547 66L3.18555 187L0.685547 192L2.43855 208.829C2.86307 212.904 6.29811 216 10.3955 216H59.9756C64.073 216 67.508 212.904 67.9325 208.829L69.6855 192L67.1855 187L69.6855 66L49.6855 48.5V44.5C49.6855 43.777 48.738 43.1846 47.1855 42.723V40.5Z" fill="#C49A2D"/>
<path d="M7.18555 103.5C7.18555 103.5 7.18555 77.5 35.1855 77.5C63.1855 77.5 63.1855 103.5 63.1855 103.5L62.6855 139.5H7.68555L7.18555 103.5Z" fill="#EAC566"/>
<path fill-rule="evenodd" clip-rule="evenodd" d="M67.8576 154.5H2.51465L3.12415 184H67.2481L67.8576 154.5Z" fill="#A6362F"/>
</svg>
