<svg width="70" height="238" viewBox="0 0 70 238" fill="none" xmlns="http://www.w3.org/2000/svg">
<path d="M17.7773 0H52.7773C50.7773 25 52.7773 25 52.7773 25H17.7773C17.7773 25 19.7773 25 17.7773 0Z" fill="#140E0E"/>
<path fill-rule="evenodd" clip-rule="evenodd" d="M20.7773 25H49.7773V50.5H50.7773V57.5H49.7773L69.7773 91V230C69.7773 234.418 66.1956 238 61.7773 238H8.77734C4.35906 238 0.777344 234.418 0.777344 230V91L20.7773 57.5H19.7773V50.5H20.7773V25Z" fill="#201817"/>
<rect x="20.7773" y="36" width="29" height="9" fill="#C49A2D"/>
<path fill-rule="evenodd" clip-rule="evenodd" d="M65.2773 128.95V217.5H5.27734V128.95C5.27734 107.991 18.7088 91 35.2773 91C51.8459 91 65.2773 107.991 65.2773 128.95Z" fill="#C49A2D"/>
<ellipse cx="35.0273" cy="79.75" rx="14.75" ry="5.75" fill="#C34444"/>
</svg>
