<svg width="74" height="194" viewBox="0 0 74 194" fill="none" xmlns="http://www.w3.org/2000/svg">
<path d="M23.5 0.5H50.5V33H23.5V0.5Z" fill="#8A6C3E"/>
<path fill-rule="evenodd" clip-rule="evenodd" d="M50.5 41C50.5 36.5817 46.9183 33 42.5 33H31.5C27.0817 33 23.5 36.5817 23.5 41V92.9635C23.5 92.9836 23.4836 93 23.4635 93V93C23.4548 93 23.4464 93.0031 23.4398 93.0087L2.80865 110.605C1.0265 112.125 0 114.349 0 116.691V178C0 186.837 7.16344 194 16 194H58C66.8366 194 74 186.837 74 178V116.691C74 114.349 72.9735 112.125 71.1914 110.605L50.5602 93.0087C50.5536 93.0031 50.5452 93 50.5365 93V93C50.5164 93 50.5 92.9836 50.5 92.9635V41Z" fill="#D2683A"/>
<path d="M0 162H74V178C74 186.837 66.8366 194 58 194H16C7.16344 194 0 186.837 0 178V162Z" fill="#E9B198"/>
<path d="M23.5 33H50.5V75.5H23.5V33Z" fill="#E4D4D0"/>
</svg>
