<svg width="68" height="175" viewBox="0 0 68 175" fill="none" xmlns="http://www.w3.org/2000/svg">
<path fill-rule="evenodd" clip-rule="evenodd" d="M45.7598 16.25H21.7598V22.25H45.7598V16.25ZM45.7729 22.2501H21.7729C21.7729 22.2501 1.77302 28.25 1.77295 40.7501C1.7729 49.3325 2.70269 57.9237 3.68139 66.9667C4.98338 78.9969 6.37193 91.8268 5.77295 106.5C5.47979 113.682 4.21178 119.352 2.96617 124.922C1.54164 131.292 0.146399 137.531 0.272114 145.75C0.299883 147.566 0.287442 149.555 0.274637 151.603C0.214138 161.279 0.145539 172.25 4.27222 172.25C20.2722 172.25 20.2722 167.25 20.2722 167.25C20.2722 167.25 20.2722 174.75 33.7729 174.75C47.2737 174.75 47.2722 167.25 47.2722 167.25C47.2722 167.25 47.2722 172.25 63.2722 172.25C67.3983 172.25 67.3297 161.282 67.2693 151.607C67.2565 149.558 67.244 147.567 67.2719 145.75C67.3979 137.531 66.003 131.291 64.5788 124.921C63.3337 119.351 62.0661 113.681 61.773 106.5C61.174 91.8266 62.5625 78.9965 63.8645 66.9661C64.8432 57.9233 65.773 49.3324 65.773 40.7501C65.773 28.2502 45.7729 22.2501 45.7729 22.2501Z" fill="#D9D9D9"/>
<path d="M21.7598 0.25H45.7598L46.7598 16.25H20.7598L21.7598 0.25Z" fill="#B3BEC5"/>
<path fill-rule="evenodd" clip-rule="evenodd" d="M64.8713 57.25L2.67458 57.25C2.97538 60.4433 3.32514 63.675 3.68138 66.9666L3.68139 66.9667C4.98338 78.9969 6.37193 91.8268 5.77295 106.5C5.47979 113.682 4.21178 119.352 2.96617 124.922C1.54164 131.292 0.146399 137.531 0.272114 145.75C0.299883 147.566 0.287442 149.555 0.274637 151.603C0.267391 152.762 0.260029 153.94 0.259773 155.115C0.259763 155.156 0.259763 155.198 0.259773 155.24C0.260148 156.938 0.275905 158.629 0.328847 160.25H67.2151C67.2347 159.649 67.2493 159.037 67.2598 158.42V149.966C67.2546 148.894 67.2526 147.848 67.2598 146.845V143.089C67.0885 136.147 65.8452 130.586 64.5788 124.921C63.3337 119.351 62.0661 113.681 61.773 106.5C61.174 91.8267 62.5625 78.9965 63.8645 66.9662V66.9661L63.8645 66.966C64.2208 63.6746 64.5705 60.443 64.8713 57.25Z" fill="#B3BEC5"/>
<path fill-rule="evenodd" clip-rule="evenodd" d="M63.1444 118.135C59.9242 123.265 55.217 128.008 50.5098 132.75C42.1348 141.188 33.7598 149.625 33.7598 160.25C33.7598 149.625 25.3848 141.188 17.0098 132.75C12.3123 128.018 7.61485 123.285 4.39521 118.166C3.95669 120.493 3.45967 122.715 2.96616 124.922L2.96616 124.922C1.54163 131.292 0.146392 137.531 0.272107 145.75C0.299876 147.566 0.287435 149.555 0.274631 151.603C0.267384 152.762 0.260022 153.94 0.259766 155.115V155.24C0.260141 156.938 0.275898 158.629 0.328841 160.25H33.7598H67.2151C67.2347 159.649 67.2492 159.038 67.2598 158.42C67.2598 158.42 67.2598 158.42 67.2598 158.42V149.966C67.2546 148.894 67.2526 147.848 67.2598 146.845V143.089C67.0885 136.147 65.8452 130.586 64.5788 124.921L64.5788 124.921C64.0833 122.704 63.5842 120.472 63.1444 118.135Z" fill="#6998D0"/>
</svg>
