<svg width="68" height="175" viewBox="0 0 68 175" fill="none" xmlns="http://www.w3.org/2000/svg">
<path fill-rule="evenodd" clip-rule="evenodd" d="M45.7598 16.5H21.7598V22.5H45.7598V16.5ZM45.7729 22.5001H21.7729C21.7729 22.5001 1.77302 28.5 1.77295 41.0001C1.7729 49.5825 2.70269 58.1737 3.68139 67.2167C4.98338 79.2469 6.37193 92.0768 5.77295 106.75C5.47979 113.932 4.21178 119.602 2.96617 125.172C1.54164 131.542 0.146399 137.781 0.272114 146C0.299883 147.816 0.287442 149.805 0.274637 151.853C0.214138 161.529 0.145539 172.5 4.27222 172.5C20.2722 172.5 20.2722 167.5 20.2722 167.5C20.2722 167.5 20.2722 175 33.7729 175C47.2737 175 47.2722 167.5 47.2722 167.5C47.2722 167.5 47.2722 172.5 63.2722 172.5C67.3983 172.5 67.3297 161.532 67.2693 151.857C67.2565 149.808 67.244 147.817 67.2719 146C67.3979 137.781 66.003 131.541 64.5788 125.171C63.3337 119.601 62.0661 113.931 61.773 106.75C61.174 92.0766 62.5625 79.2465 63.8645 67.2161C64.8432 58.1733 65.773 49.5824 65.773 41.0001C65.773 28.5002 45.7729 22.5001 45.7729 22.5001Z" fill="#D9D9D9"/>
<path d="M21.7598 0.5H45.7598L46.7598 16.5H20.7598L21.7598 0.5Z" fill="#B3BEC5"/>
<path fill-rule="evenodd" clip-rule="evenodd" d="M64.8713 57.5L2.67458 57.5C2.97538 60.6933 3.32514 63.925 3.68138 67.2166L3.68139 67.2167C4.98338 79.2469 6.37193 92.0768 5.77295 106.75C5.47979 113.932 4.21178 119.602 2.96617 125.172C1.54164 131.542 0.146399 137.781 0.272114 146C0.299883 147.816 0.287442 149.805 0.274637 151.853C0.267391 153.012 0.260029 154.19 0.259773 155.365C0.259763 155.406 0.259763 155.448 0.259773 155.49C0.260148 157.188 0.275905 158.879 0.328847 160.5H67.2151C67.2347 159.898 67.2493 159.287 67.2598 158.669V150.216C67.2546 149.144 67.2526 148.098 67.2598 147.095V143.339C67.0885 136.397 65.8452 130.836 64.5788 125.171C63.3337 119.601 62.0661 113.931 61.773 106.75C61.174 92.0767 62.5625 79.2465 63.8645 67.2162V67.2161L63.8645 67.216C64.2208 63.9246 64.5705 60.693 64.8713 57.5Z" fill="#B3BEC5"/>
<path fill-rule="evenodd" clip-rule="evenodd" d="M63.1444 118.385C59.9242 123.515 55.217 128.258 50.5098 133C42.1348 141.438 33.7598 149.875 33.7598 160.5C33.7598 149.875 25.3848 141.438 17.0098 133C12.3123 128.268 7.61485 123.535 4.39521 118.416C3.95669 120.743 3.45967 122.965 2.96616 125.172L2.96616 125.172C1.54163 131.542 0.146392 137.781 0.272107 146C0.299876 147.816 0.287435 149.805 0.274631 151.853C0.267384 153.012 0.260022 154.19 0.259766 155.365V155.49C0.260141 157.188 0.275898 158.879 0.328841 160.5H33.7598H67.2151C67.2347 159.899 67.2492 159.287 67.2598 158.67C67.2598 158.67 67.2598 158.669 67.2598 158.669V150.216C67.2546 149.144 67.2526 148.098 67.2598 147.095V143.339C67.0885 136.397 65.8452 130.836 64.5788 125.171L64.5788 125.171C64.0833 122.954 63.5842 120.722 63.1444 118.385Z" fill="#6998D0"/>
</svg>
