<svg width="75" height="218" viewBox="0 0 75 218" fill="none" xmlns="http://www.w3.org/2000/svg">
<path fill-rule="evenodd" clip-rule="evenodd" d="M49.4975 21H25.8721C25.8722 43.5512 24.5603 51.6584 23.9067 55.6979C23.2705 59.6295 23.2578 59.7079 25.685 65.5H25.6855C25.6855 65.5 0.686109 75.6007 0.685547 89C0.685104 99.5519 4.2484 184.214 5.35905 210.346C5.541 214.627 9.06468 218 13.3495 218H62.0215C66.3064 218 69.8301 214.627 70.012 210.346C71.1226 184.214 74.6855 99.5519 74.6855 89C74.6855 75.6007 49.6856 65.5 49.6856 65.5H49.6851C52.1127 59.7081 52.1 59.6296 51.4636 55.6982C50.8097 51.6587 49.4975 43.5517 49.4975 21Z" fill="#201817"/>
<path d="M23.6855 0H51.6855C50.0855 21 51.6855 21 51.6855 21H23.6855C23.6855 21 25.2855 21 23.6855 0Z" fill="#140E0E"/>
<path fill-rule="evenodd" clip-rule="evenodd" d="M74.5197 96.5H0.849609C1.35618 113.49 2.92925 152.286 4.14503 181.5H71.2243C72.44 152.286 74.013 113.49 74.5197 96.5Z" fill="#D9D9D9"/>
</svg>
