<svg width="66" height="240" viewBox="0 0 66 240" fill="none" xmlns="http://www.w3.org/2000/svg">
<path d="M21.1739 0.5H45.3808L46.7773 13H19.7773L21.1739 0.5Z" fill="#ED3052"/>
<path fill-rule="evenodd" clip-rule="evenodd" d="M45.7773 13H20.7773V54.5L0.777344 80C6.6538 108.031 2.61316 202.676 1.20748 231.56C0.984327 236.145 4.63814 240 9.22886 240H57.3258C61.9165 240 65.5704 236.145 65.3472 231.56C63.9415 202.676 59.9009 108.031 65.7773 80L45.7773 54.5V13Z" fill="#EB9595"/>
<rect x="20.7773" y="13" width="25" height="41.5" fill="#D9D9D9"/>
<path fill-rule="evenodd" clip-rule="evenodd" d="M65.2008 228.5L1.35481 228.5C1.3033 229.588 1.2542 230.61 1.20795 231.56C0.984793 236.145 4.63861 240 9.22932 240H57.3263C61.917 240 65.5708 236.145 65.3477 231.56C65.3014 230.61 65.2523 229.588 65.2008 228.5Z" fill="#D9D9D9"/>
</svg>
