<svg width="69" height="230" viewBox="0 0 69 230" fill="none" xmlns="http://www.w3.org/2000/svg">
<path fill-rule="evenodd" clip-rule="evenodd" d="M46.4902 5.5H22.4902V77.5L-0.00976562 114.5L2.32082 222.173C2.41497 226.523 5.96813 230 10.3189 230H58.6615C63.0123 230 66.5655 226.523 66.6596 222.173L68.9902 114.5L46.4902 77.5V5.5Z" fill="#1D1D1D"/>
<rect width="24" height="5" transform="matrix(1 0 0 -1 22.4902 5.5)" fill="#8A6C3E"/>
<path fill-rule="evenodd" clip-rule="evenodd" d="M6.79199 127.065L14.8752 142.233C20.0825 139.906 26.8522 138.5 34.2527 138.5C41.7783 138.5 48.6516 139.954 53.8929 142.352L61.9906 127.157C54.1889 123.281 44.6279 121 34.2985 121C24.0508 121 14.5595 123.245 6.79199 127.065Z" fill="#C34444"/>
<ellipse cx="34.4902" cy="155.75" rx="25.5" ry="13.25" fill="#D9D9D9"/>
</svg>
