<svg width="67" height="215" viewBox="0 0 67 215" fill="none" xmlns="http://www.w3.org/2000/svg">
<path d="M1.92217e-10 155C-6.3158e-05 131.847 15.5642 118.384 18 95.36C21 67.0029 21 35 21 35H46C46 35 46 67.0029 49 95.36C51.4358 118.384 67 131.847 67 155C67 187 62 215 62 215H5C5 215 8.72931e-05 187 1.92217e-10 155Z" fill="#D9A031"/>
<rect x="21" width="25" height="35" fill="#9C7324"/>
<path fill-rule="evenodd" clip-rule="evenodd" d="M49.8803 101C51.5812 109.238 54.8472 116.317 58.0743 123.311C60.0044 127.494 61.9205 131.647 63.4798 136H3.51953C5.07876 131.647 6.99494 127.494 8.925 123.311C12.1522 116.317 15.4181 109.238 17.119 101H49.8803Z" fill="#373737"/>
</svg>
