<svg width="69" height="207" viewBox="0 0 69 207" fill="none" xmlns="http://www.w3.org/2000/svg">
<path fill-rule="evenodd" clip-rule="evenodd" d="M45.1795 5.5H23.3205L20.5 15.5H22.5L17.5 63V83L0 107V199C0 203.418 3.58172 207 8 207H61C65.4183 207 69 203.418 69 199V107L51.5 83V63L46.5 15.5H48L45.1795 5.5Z" fill="#8B5037"/>
<path d="M22.6031 1.7717C23.0464 0.985992 23.8785 0.5 24.7806 0.5H43.7194C44.6215 0.5 45.4536 0.985991 45.8969 1.7717V1.7717C46.837 3.43824 45.6328 5.5 43.7194 5.5H24.7806C22.8672 5.5 21.663 3.43824 22.6031 1.7717V1.7717Z" fill="#808080"/>
<rect y="124.5" width="69" height="56" fill="#3768A2"/>
<path fill-rule="evenodd" clip-rule="evenodd" d="M18.8154 50.5L21.6049 24H47.3944L50.1839 50.5H18.8154Z" fill="#3768A2"/>
</svg>
