<svg width="64" height="175" viewBox="0 0 64 175" fill="none" xmlns="http://www.w3.org/2000/svg">
<path fill-rule="evenodd" clip-rule="evenodd" d="M43.5004 16H19.5004V22H43.5004V16ZM43.5135 22.0001H19.5135C19.5135 22.0001 0.51045 47.4999 0.510374 60C0.510323 68.6233 1.26368 75.1639 2.03666 81.875C3.05644 90.7288 4.11039 99.8792 3.51356 114.5C3.22144 121.656 2.39352 125.529 1.61472 129.172C0.718121 133.366 -0.113383 137.256 0.0127221 145.5C0.0404913 147.316 0.0280497 149.305 0.0152455 151.353C-0.0452541 161.029 -0.113853 172 4.01282 172C16.4554 172 18.0123 168.976 18.0896 167.632C18.4429 169.439 20.4227 174.5 31.5135 174.5C42.6034 174.5 44.5827 169.439 44.936 167.632C45.0136 168.977 46.5716 172 59.0128 172C63.1389 172 63.0703 161.032 63.0099 151.357C62.9971 149.308 62.9846 147.317 63.0125 145.5C63.1389 137.255 62.3078 133.366 61.4115 129.171C60.6332 125.528 59.8057 121.656 59.5136 114.5C58.9167 99.8776 59.9688 90.7267 60.9869 81.872C61.7584 75.162 62.5104 68.622 62.5104 60C62.5104 47.5001 43.5135 22.0001 43.5135 22.0001Z" fill="#272121"/>
<path d="M19.5 0H43.5L44.5 16H18.5L19.5 0Z" fill="#A5362F"/>
<path fill-rule="evenodd" clip-rule="evenodd" d="M62.4729 59H0.548567C0.523575 59.3417 0.510744 59.6752 0.510742 60C0.510692 68.6233 1.26404 75.1639 2.03702 81.875C3.02148 90.4221 4.03778 99.2456 3.57008 113H59.4578C58.9899 99.244 60.0044 90.42 60.9873 81.872V81.872C61.7588 75.162 62.5107 68.622 62.5107 60C62.5107 59.6752 62.4979 59.3417 62.4729 59Z" fill="#C34444"/>
</svg>
