<svg width="82" height="177" viewBox="0 0 82 177" fill="none" xmlns="http://www.w3.org/2000/svg">
<path d="M32.0006 17V12H50.0006V17C50.0006 17 72.1819 29.9683 78.0006 44C82.0644 53.7999 81.0006 54 81.0006 67C81.0006 71.7187 76.4946 77.3072 76.0006 82C75.3542 88.1408 81.0006 90.8253 81.0006 97C81.0006 163 81.0006 163 81.0006 163L76.0006 177H6.00059L1.00059 163C1.00059 163 1.0003 163 1.00059 97C1.00062 90.8253 6.647 88.1408 6.00059 82C5.50662 77.3072 1.00057 71.7187 1.00059 67C1.00066 54 -0.0632117 53.7999 4.00059 44C9.81927 29.9683 32.0006 17 32.0006 17Z" fill="#A6362F"/>
<rect x="1" y="99" width="80" height="60" fill="#D9D9D9"/>
<rect x="1" y="99" width="80" height="20" fill="#C74941"/>
<path d="M30 2C30 0.895431 30.8954 0 32 0H50C51.1046 0 52 0.895431 52 2V12H30V2Z" fill="#D9D9D9"/>
</svg>
