<svg width="64" height="234" viewBox="0 0 64 234" fill="none" xmlns="http://www.w3.org/2000/svg">
<path d="M0 134.88C-3.20478e-05 104.462 21.2947 83.7347 21.2947 53.3167C21.2947 21.7343 21.2947 27.1652 21.2947 31.0006C21.2947 32.1052 22.1902 33 23.2947 33H40.7057C41.8102 33 42.7057 32.1052 42.7057 31.0006C42.7057 27.1652 42.7057 21.7343 42.7057 53.3167C42.7057 83.7347 63.9999 104.462 63.9999 134.88C63.9999 205.739 63.9999 226.287 63.9999 231.913C63.9999 233.018 63.1045 233.907 61.9999 233.907H2.00002C0.895445 233.907 6.65686e-06 233.017 1.09929e-05 231.913C3.30793e-05 226.286 7.46559e-05 205.739 0 134.88Z" fill="#1D1A1E"/>
<rect x="21" width="22" height="33" fill="#A5362F"/>
<rect x="6" y="144" width="52" height="72" fill="#D9D9D9"/>
</svg>
