<svg width="65" height="206" viewBox="0 0 65 206" fill="none" xmlns="http://www.w3.org/2000/svg">
<path fill-rule="evenodd" clip-rule="evenodd" d="M42.0061 15.3294C42.0061 14.2248 41.1107 13.3294 40.0061 13.3294H25.9169C24.8124 13.3294 23.9169 14.2248 23.9169 15.3294V52.1058C23.9169 52.1059 23.917 52.1059 23.917 52.1059V52.1059C23.917 52.1059 23.9171 52.1059 23.9171 52.1059C23.9141 52.1071 0.126037 61.5645 1.0042 73.9176C6.64613 153.283 7.00897 176.424 7.03231 179.074C7.03389 179.254 7.00959 179.429 6.96161 179.603L1.0765 200.891C1.02852 201.065 1.0042 201.244 1.0042 201.424V204C1.0042 205.105 1.89963 206 3.0042 206H62.9192C64.0237 206 64.9192 205.105 64.9192 204V201.424C64.9192 201.244 64.8949 201.065 64.8469 200.891L58.9618 179.603C58.9138 179.429 58.8895 179.254 58.8911 179.074C58.9144 176.424 59.2774 153.283 64.9192 73.9176C65.7974 61.5638 42.0068 52.1061 42.0063 52.1059C42.0062 52.1059 42.0062 52.1059 42.0062 52.1059V52.1059C42.0061 52.1059 42.0061 52.1058 42.0061 52.1057V15.3294Z" fill="#5B7836"/>
<path d="M23.9169 0H42.006L43.212 13.3294H22.7109L23.9169 0Z" fill="#204621"/>
<ellipse cx="32.9618" cy="106.029" rx="27.1337" ry="27.2647" fill="#D9D9D9"/>
<ellipse cx="32.9613" cy="106.029" rx="11.4565" ry="11.5118" fill="#C34444"/>
<path fill-rule="evenodd" clip-rule="evenodd" d="M59.8758 153.716L32.3583 157.529L6.05566 153.884C7.03371 173.214 7.03365 179.341 7.03365 179.341L7.03365 179.341L58.8892 179.341C58.8892 179.341 58.8892 173.179 59.8758 153.716Z" fill="#D9D9D9"/>
<rect x="13" y="101" width="41" height="10" fill="#1D1D1D"/>
</svg>
