<svg width="69" height="230" viewBox="0 0 69 230" fill="none" xmlns="http://www.w3.org/2000/svg">
<path d="M17 0H52C50 25 52 25 52 25H17C17 25 19 25 17 0Z" fill="#8A6C3E"/>
<path fill-rule="evenodd" clip-rule="evenodd" d="M50.2698 28.7099C50.1177 26.6188 48.3769 25 46.2803 25H22.7197C20.6231 25 18.8823 26.6188 18.7302 28.7099L15.1233 78.3051C15.0445 79.3882 14.5288 80.3927 13.6945 81.0879L1.43926 91.3006C0.527291 92.0606 0 93.1864 0 94.3735V226C0 228.209 1.79086 230 4 230H65C67.2091 230 69 228.209 69 226V94.3735C69 93.1864 68.4727 92.0606 67.5607 91.3006L55.3055 81.0879C54.4712 80.3927 53.9555 79.3882 53.8767 78.3051L50.2698 28.7099Z" fill="#367838"/>
<mask id="path-3-inside-1_282_310" fill="white">
<path d="M11.5 109.5C11.5 107.291 13.2909 105.5 15.5 105.5H53.5C55.7091 105.5 57.5 107.291 57.5 109.5V206C57.5 208.209 55.7091 210 53.5 210H15.5C13.2909 210 11.5 208.209 11.5 206V109.5Z"/>
</mask>
<path d="M11.5 109.5C11.5 107.291 13.2909 105.5 15.5 105.5H53.5C55.7091 105.5 57.5 107.291 57.5 109.5V206C57.5 208.209 55.7091 210 53.5 210H15.5C13.2909 210 11.5 208.209 11.5 206V109.5Z" fill="#C44444"/>
<path d="M15.5 113.5H53.5V97.5H15.5V113.5ZM49.5 109.5V206H65.5V109.5H49.5ZM53.5 202H15.5V218H53.5V202ZM19.5 206V109.5H3.5V206H19.5ZM15.5 202C17.7091 202 19.5 203.791 19.5 206H3.5C3.5 212.627 8.87258 218 15.5 218V202ZM49.5 206C49.5 203.791 51.2909 202 53.5 202V218C60.1274 218 65.5 212.627 65.5 206H49.5ZM53.5 113.5C51.2909 113.5 49.5 111.709 49.5 109.5H65.5C65.5 102.873 60.1274 97.5 53.5 97.5V113.5ZM15.5 97.5C8.87258 97.5 3.5 102.873 3.5 109.5H19.5C19.5 111.709 17.7091 113.5 15.5 113.5V97.5Z" fill="#9E783F" mask="url(#path-3-inside-1_282_310)"/>
</svg>
