<svg width="83" height="133" viewBox="0 0 83 133" fill="none" xmlns="http://www.w3.org/2000/svg">
<path fill-rule="evenodd" clip-rule="evenodd" d="M48.9727 26.75C48.9727 26.0596 48.413 25.5 47.7227 25.5H35.2227C34.5323 25.5 33.9727 26.0596 33.9727 26.75V26.75C33.9727 27.4404 34.5323 28 35.2227 28H41.4723C18.0002 28 -1.02945 47.0466 0.808383 70.4467C2.28559 89.255 4.95128 110.852 9.76169 127.549C10.7083 130.835 13.7694 133 17.1887 133H65.7559C69.1753 133 72.2364 130.835 73.183 127.549C77.9934 110.852 80.6591 89.255 82.1363 70.4467C83.9741 47.0466 64.9445 28 41.4723 28H47.7227C48.413 28 48.9727 27.4404 48.9727 26.75V26.75Z" fill="#EFF254"/>
<path d="M32.9727 0.5H49.9727L51.4727 25.5H31.4727L32.9727 0.5Z" fill="#DDCF51"/>
<path fill-rule="evenodd" clip-rule="evenodd" d="M73.7567 43.2328L0.762306 64.8776C0.647671 66.7005 0.660157 68.5594 0.808383 70.4467C1.65531 81.2301 2.89291 92.9301 4.70139 104.098L81.158 81.4265C81.5315 77.701 81.8554 74.0234 82.1363 70.4467C82.9488 60.1012 79.6825 50.6067 73.7567 43.2328Z" fill="#53A456"/>
</svg>
