<svg width="81" height="177" viewBox="0 0 81 177" fill="none" xmlns="http://www.w3.org/2000/svg">
<path d="M31.7115 17V12H49.7115V17C49.7115 17 71.8929 29.9683 77.7115 44C81.7754 53.7999 80.7115 54 80.7115 67C80.7115 71.7187 76.2055 77.3072 75.7115 82C75.0651 88.1408 80.7115 90.8253 80.7115 97C80.7115 163 80.7115 163 80.7115 163L75.7115 177H5.71153L0.711532 163C0.711532 163 0.711237 163 0.711532 97C0.71156 90.8253 6.35793 88.1408 5.71153 82C5.21755 77.3072 0.711509 71.7187 0.711532 67C0.711595 54 -0.352274 53.7999 3.71153 44C9.53021 29.9683 31.7115 17 31.7115 17Z" fill="#A68B2F"/>
<rect x="0.710938" y="99" width="80" height="60" fill="#D9D9D9"/>
<rect x="0.710938" y="99" width="80" height="20" fill="#C7B141"/>
<path d="M29.7109 2C29.7109 0.895431 30.6064 0 31.7109 0H49.7109C50.8155 0 51.7109 0.895431 51.7109 2V12H29.7109V2Z" fill="#D9D9D9"/>
</svg>
