<svg width="65" height="164" viewBox="0 0 65 164" fill="none" xmlns="http://www.w3.org/2000/svg">
<path d="M15.0001 22.5H50.0001C50.0001 22.5 65.0001 29.9351 65.0001 38.5C65.0001 52.5 65.0001 52.5 65.0001 67.5C65.0001 81.1404 57.5545 97.3708 57.0001 111C56.3293 127.491 65.0001 152.5 65.0001 152.5L60.0001 164H4.50013L0.000131547 152.5C0.000131547 152.5 8.13105 127.457 7.50013 111C6.97925 97.4129 0.000572687 81.097 0.000132305 67.5C-0.000353516 52.5 0.000697476 52.5 0.000132305 38.5C-0.000213453 29.9351 15.0001 22.5 15.0001 22.5Z" fill="#5DA1C7"/>
<rect x="15" y="18" width="35" height="5" fill="#D9D9D9"/>
<rect x="12" width="41" height="18" fill="#1D1D1D"/>
<path fill-rule="evenodd" clip-rule="evenodd" d="M0 60.1132C0 57.0941 8.00559e-05 54.8868 0.000158019 52.7365C0.000290903 49.0714 0.000417787 45.5717 0.000132305 38.5C6.97562e-05 36.9506 0.490921 35.4381 1.29507 34H63.705C64.5021 35.4255 64.9914 36.9239 65 38.459V67.5927C64.9872 72.7842 63.9025 78.3484 62.5341 84H2.31363C1.02249 78.3054 0.000300839 72.7036 0.000132305 67.5C3.591e-05 64.5237 0 62.138 0 60.1163C0 60.1153 0 60.1143 0 60.1132Z" fill="#1D1D1D"/>
</svg>
