<svg width="64" height="234" viewBox="0 0 64 234" fill="none" xmlns="http://www.w3.org/2000/svg">
<path d="M0 124.88C-3.20478e-05 94.462 21.2947 83.7347 21.2947 53.3167C21.2947 21.7343 21.2947 27.1652 21.2947 31.0006C21.2947 32.1052 22.1902 33 23.2947 33H40.7057C41.8102 33 42.7057 32.1052 42.7057 31.0006C42.7057 27.1652 42.7057 21.7343 42.7057 53.3167C42.7057 83.7347 63.9999 94.462 63.9999 124.88C63.9999 199.852 63.9999 225.286 63.9999 231.925C63.9999 233.03 63.1045 233.907 61.9999 233.907H2.00001C0.895439 233.907 3.9613e-06 233.03 7.37035e-06 231.925C2.7861e-05 225.286 7.89893e-05 199.852 0 124.88Z" fill="#32242B"/>
<rect x="21" width="22" height="48" fill="#A5362F"/>
<rect y="144" width="64" height="72" fill="#D9D9D9"/>
</svg>
