<svg width="68" height="175" viewBox="0 0 68 175" fill="none" xmlns="http://www.w3.org/2000/svg">
<path fill-rule="evenodd" clip-rule="evenodd" d="M45.5 16H21.5V22H45.5V16ZM45.5132 22.0001H21.5132C21.5132 22.0001 1.51326 28 1.51318 40.5001C1.51313 49.0825 2.44292 57.6737 3.42162 66.7167C4.72361 78.7469 6.11216 91.5768 5.51318 106.25C5.22002 113.432 3.95201 119.102 2.7064 124.672C1.28187 131.042 -0.113367 137.281 0.0123484 145.5C0.0401176 147.316 0.0276761 149.305 0.0148718 151.353C-0.0456278 161.029 -0.114226 172 4.01245 172C20.0125 172 20.0124 167 20.0124 167C20.0124 167 20.0124 174.5 33.5132 174.5C47.0139 174.5 47.0124 167 47.0124 167C47.0124 167 47.0124 172 63.0125 172C67.1385 172 67.07 161.032 67.0095 151.357C66.9967 149.308 66.9842 147.317 67.0121 145.5C67.1381 137.281 65.7432 131.041 64.3191 124.671C63.0739 119.101 61.8063 113.431 61.5132 106.25C60.9142 91.5766 62.3028 78.7465 63.6048 66.7161C64.5834 57.6733 65.5132 49.0824 65.5132 40.5001C65.5132 28.0002 45.5132 22.0001 45.5132 22.0001Z" fill="#D8E5E9"/>
<path d="M21.5 0H45.5L46.5 16H20.5L21.5 0Z" fill="#8DAFC2"/>
</svg>
