<svg width="69" height="209" viewBox="0 0 69 209" fill="none" xmlns="http://www.w3.org/2000/svg">
<path fill-rule="evenodd" clip-rule="evenodd" d="M46.857 28.6059C46.6544 26.5594 44.933 25 42.8765 25H26.1235C24.067 25 22.3456 26.5594 22.143 28.6059L17.6072 74.4169C17.537 75.1261 17.2786 75.8036 16.8587 76.3795L0.76797 98.4468C0.268904 99.1312 0 99.9564 0 100.803V201C0 205.418 3.58172 209 8 209H61C65.4183 209 69 205.418 69 201V100.803C69 99.9564 68.7311 99.1312 68.232 98.4468L52.1413 76.3795C51.7214 75.8036 51.463 75.1261 51.3928 74.4169L46.857 28.6059Z" fill="#367838"/>
<path d="M21 0H48C46.4571 25 48 25 48 25H21C21 25 22.5429 25 21 0Z" fill="#204621"/>
<rect y="117" width="69" height="72" fill="#D9D9D9"/>
</svg>
