<svg width="120" height="150" viewBox="0 0 120 150" fill="none" xmlns="http://www.w3.org/2000/svg">
<path d="M0 0H120L115 20V130L120 150H0L5 130V20L0 0Z" fill="#2B211E"/>
<path fill-rule="evenodd" clip-rule="evenodd" d="M115 20L120 0H0L5 20V44.2494C18.3745 37.1028 55.8014 18.5 83 18.5C96.1713 18.5 108.43 23.9748 115 27.5285V20Z" fill="#D3A964"/>
<path d="M47 18L50.4641 20C50.4641 20 48.4855 27.4271 46.1423 31.4855C43.7992 35.544 38.4641 40.7846 38.4641 40.7846L35 38.7846C35 38.7846 40.3116 33.5572 42.6782 29.4855C45.0865 25.3422 47 18 47 18Z" fill="#DAC094"/>
<path d="M42.2129 67.9706L39.3845 70.799C39.3845 70.799 32.7225 66.9655 29.4088 63.6518C26.0951 60.3381 22.4139 53.8284 22.4139 53.8284L25.2423 51C25.2423 51 28.9169 57.4836 32.2373 60.8234C35.6161 64.222 42.2129 67.9706 42.2129 67.9706Z" fill="#DAC094"/>
<path d="M18.9994 87.5C27.5 61.5 63.4997 45 63.4997 45L58.9997 51L69.9997 45L58.9997 60.223C58.9997 60.223 59.1219 66.968 55 71C49.501 76.3791 39 86.223 39 86.223C39 86.223 36.0952 96.1832 40.9997 98.223C47.0441 100.737 54.9407 96.3247 57.5 89.5C59 85.5 57.5 85 57.5 85L63.5 88L65.9997 86.223L63.9997 98.223C63.9997 98.223 55.2555 112.554 45.9997 114.223C35.8531 116.052 28.1066 111.53 21.9997 103.223C17.231 96.7364 18.9994 87.5 18.9994 87.5Z" fill="#DA5F38"/>
<path fill-rule="evenodd" clip-rule="evenodd" d="M5 108.178C11.1172 106.097 21.5743 103.036 29 103.5C59.8452 105.428 102.46 126.356 115.821 133.286L120 150H0L5 130V108.178Z" fill="#DAC094"/>
<rect x="68" y="121.247" width="28" height="9" transform="rotate(-15 68 121.247)" fill="#DA5F38"/>
<circle cx="90" cy="42" r="10" fill="#D9D9D9"/>
<circle cx="90" cy="65" r="10" fill="#D9D9D9"/>
<circle cx="90" cy="88" r="10" fill="#D9D9D9"/>
<circle cx="90" cy="42" r="8" fill="#343434"/>
<circle cx="90" cy="65" r="8" fill="#343434"/>
<circle cx="90" cy="88" r="8" fill="#343434"/>
</svg>
