<svg width="64" height="206" viewBox="0 0 64 206" fill="none" xmlns="http://www.w3.org/2000/svg">
<path fill-rule="evenodd" clip-rule="evenodd" d="M41.0635 15.3294C41.0635 14.2248 40.1681 13.3294 39.0635 13.3294H24.9744C23.8698 13.3294 22.9744 14.2248 22.9744 15.3294V52.1058C22.9744 52.1059 22.9744 52.1059 22.9744 52.1059V52.1059C22.9745 52.1059 22.9748 52.1058 22.9747 52.1059C22.9688 52.1082 -0.816291 61.5652 0.0618147 73.9176C5.70375 153.283 6.06659 176.424 6.08993 179.074C6.09151 179.254 6.06721 179.429 6.01923 179.603L0.134117 200.891C0.0861352 201.065 0.0618147 201.244 0.0618147 201.424V204C0.0618147 205.105 0.957244 206 2.06181 206H61.9768C63.0814 206 63.9768 205.105 63.9768 204V201.424C63.9768 201.244 63.9525 201.065 63.9045 200.891L58.0194 179.603C57.9714 179.429 57.9471 179.254 57.9487 179.074C57.972 176.424 58.3351 153.283 63.9768 73.9176C64.855 61.564 41.065 52.1063 41.0639 52.1059C41.0638 52.1059 41.0639 52.1059 41.0638 52.1059V52.1059C41.0637 52.1059 41.0635 52.1057 41.0635 52.1056V15.3294Z" fill="#272121"/>
<path d="M22.9745 0H41.0636L42.2696 13.3294H21.7686L22.9745 0Z" fill="#A83A3A"/>
<ellipse cx="32.0195" cy="106.029" rx="27.1337" ry="27.2647" fill="#D9D9D9"/>
<ellipse cx="32.019" cy="106.029" rx="11.4565" ry="11.5118" fill="#C34444"/>
<path fill-rule="evenodd" clip-rule="evenodd" d="M58.9344 153.716L31.4169 157.529L5.11426 153.884C6.09231 173.214 6.09225 179.341 6.09225 179.341H57.9478C57.9478 179.341 57.9478 173.179 58.9344 153.716Z" fill="#D9D9D9"/>
<rect x="12" y="101" width="41" height="10" fill="#1D1D1D"/>
</svg>
