<svg width="76" height="205" viewBox="0 0 76 205" fill="none" xmlns="http://www.w3.org/2000/svg">
<path fill-rule="evenodd" clip-rule="evenodd" d="M51.9394 22.2249C52.0716 20.7613 50.9191 19.5 49.4496 19.5H26.9215C25.452 19.5 24.2995 20.7613 24.4317 22.2249L24.6353 24.4799C24.6364 24.4913 24.6459 24.5 24.6573 24.5V24.5C24.6717 24.5 24.6822 24.5135 24.6787 24.5274L20.5171 41.1739C20.2976 42.0516 20.2287 42.9602 20.3131 43.8609L21.2548 53.905C21.506 56.5853 20.3925 59.2122 18.2916 60.8953L3.68368 72.5981C1.78852 74.1164 0.685547 76.4133 0.685547 78.8416V197C0.685547 201.418 4.26727 205 8.68555 205H67.6855C72.1038 205 75.6855 201.418 75.6855 197V78.8416C75.6855 76.4133 74.5826 74.1164 72.6874 72.5981L58.0795 60.8953C55.9786 59.2122 54.8651 56.5853 55.1163 53.905L56.058 43.8609C56.1424 42.9602 56.0735 42.0516 55.854 41.1739L51.6924 24.5274C51.6889 24.5135 51.6994 24.5 51.7138 24.5V24.5C51.7252 24.5 51.7347 24.4913 51.7357 24.4799L51.9394 22.2249Z" fill="#D6811D"/>
<path d="M22.6855 0.5H53.6855C51.9141 19.5 53.6855 19.5 53.6855 19.5H22.6855C22.6855 19.5 24.457 19.5 22.6855 0.5Z" fill="#151C40"/>
<path d="M0.685547 96L38.1855 112.565L75.6855 96V148.44L38.1855 165L0.685547 148.44V96Z" fill="#151C40"/>
<path fill-rule="evenodd" clip-rule="evenodd" d="M56.0914 43H20.2783C20.2871 42.3851 20.3668 41.7723 20.5164 41.1739L24.678 24.5274C24.6815 24.5135 24.6709 24.5 24.6566 24.5C24.6452 24.5 24.6357 24.4913 24.6346 24.4799L24.431 22.2249C24.2988 20.7613 25.4513 19.5 26.9208 19.5H49.4489C50.9184 19.5 52.0709 20.7613 51.9387 22.2249L51.735 24.4799C51.734 24.4913 51.7245 24.5 51.7131 24.5C51.6987 24.5 51.6882 24.5135 51.6917 24.5274L55.8533 41.1739C56.0029 41.7724 56.0826 42.3851 56.0914 43Z" fill="#151C40"/>
<rect x="13.1855" y="179.5" width="50" height="12" fill="#151C40"/>
</svg>
