<svg width="65" height="206" viewBox="0 0 65 206" fill="none" xmlns="http://www.w3.org/2000/svg">
<path fill-rule="evenodd" clip-rule="evenodd" d="M41.5346 15.3294C41.5346 14.2248 40.6391 13.3294 39.5346 13.3294H25.4454C24.3409 13.3294 23.4454 14.2248 23.4454 15.3294V50.1059C23.4454 51.2104 22.6274 52.4383 21.621 52.8936C16.0697 55.4051 -0.196408 63.6637 0.532518 73.9176C6.17445 153.283 6.53729 176.424 6.56063 179.074C6.56221 179.254 6.53791 179.429 6.48993 179.603L0.60482 200.891C0.556838 201.065 0.532518 201.244 0.532518 201.424V204C0.532518 205.105 1.42795 206 2.53252 206H62.4475C63.5521 206 64.4475 205.105 64.4475 204V201.424C64.4475 201.244 64.4232 201.065 64.3752 200.891L58.4901 179.603C58.4421 179.429 58.4178 179.254 58.4194 179.074C58.4427 176.424 58.8058 153.283 64.4475 73.9176C65.1764 63.6637 48.9103 55.4051 43.359 52.8936C42.3526 52.4383 41.5346 51.2104 41.5346 50.1059V15.3294Z" fill="#AFB7A6"/>
<path d="M23.4452 0H41.5343L42.7403 13.3294H22.2393L23.4452 0Z" fill="#1B3E73"/>
<ellipse cx="32.4902" cy="106.029" rx="27.1337" ry="27.2647" fill="#D9D9D9"/>
<ellipse cx="32.4897" cy="106.029" rx="11.4565" ry="11.5118" fill="#C34444"/>
<path fill-rule="evenodd" clip-rule="evenodd" d="M59.4041 153.716L31.8866 157.529L5.58398 153.884C6.56203 173.214 6.56197 179.341 6.56197 179.341L6.56197 179.341L58.4175 179.341C58.4175 179.341 58.4175 173.179 59.4041 153.716Z" fill="#D9D9D9"/>
<rect x="13" y="101" width="41" height="10" fill="#1D1D1D"/>
</svg>
