<svg width="69" height="235" viewBox="0 0 69 235" fill="none" xmlns="http://www.w3.org/2000/svg">
<path fill-rule="evenodd" clip-rule="evenodd" d="M49 55.75C49 51.3317 45.4183 47.75 41 47.75H28C23.5817 47.75 20 51.3317 20 55.75V73.9363C20 76.058 19.1571 78.0929 17.6569 79.5931L2.34315 94.9069C0.842858 96.4071 0 98.442 0 100.564V226.75C0 231.168 3.58172 234.75 8 234.75H61C65.4183 234.75 69 231.168 69 226.75V100.564C69 98.442 68.1571 96.4071 66.6569 94.9069L51.3431 79.5932C49.8429 78.0929 49 76.058 49 73.9363V55.75Z" fill="#AA8C3F"/>
<path d="M0 114.75H69V177.75H0V114.75Z" fill="#D9D9D9"/>
<path d="M0 192.25H69V213.25H0V192.25Z" fill="#D9D9D9"/>
<path d="M19 0.25H50V47.75H19V0.25Z" fill="#8A6C3E"/>
</svg>
