<svg width="72" height="245" viewBox="0 0 72 245" fill="none" xmlns="http://www.w3.org/2000/svg">
<path d="M0.696803 94.8233C0.696803 84.4397 15.4118 86.2408 20.6968 77.3027C26.8471 66.9012 25.6968 46.7668 25.6968 46.7668V32.5H45.6968V46.7668C45.6968 46.7668 44.5465 66.9012 50.6968 77.3027C55.9818 86.2408 70.6968 84.4397 70.6968 94.8233C70.6968 117.5 67.8195 138.596 68.1968 166.668C68.469 186.919 72.3611 198.284 70.6968 218.469C69.8358 228.912 72.0107 235.969 66.6968 245H4.6968C-0.617054 235.969 1.55797 228.912 0.696803 218.469C-0.96805 198.28 2.92482 186.913 3.1968 166.658C3.57368 138.59 0.696803 117.5 0.696803 94.8233Z" fill="#D9D9D9"/>
<rect x="25.6963" width="20" height="32.5" fill="#1D1D1D"/>
<circle cx="35.6963" cy="135" r="17" fill="#E99548"/>
</svg>
