<svg width="71" height="249" viewBox="0 0 71 249" fill="none" xmlns="http://www.w3.org/2000/svg">
<path fill-rule="evenodd" clip-rule="evenodd" d="M51.5638 52.6156C50.984 51.0439 49.4863 50 47.8111 50H23.9665C22.2913 50 20.7936 51.0439 20.2138 52.6156L1.19132 104.18C0.991992 104.72 0.912511 105.307 0.956335 105.881C6.43982 177.733 3.7454 221.773 1.99247 239.7C1.51314 244.602 5.35379 249 10.2792 249H61.4984C66.4238 249 70.2645 244.602 69.7851 239.7C68.0322 221.773 65.3378 177.733 70.8213 105.881C70.8651 105.307 70.7856 104.72 70.5863 104.18L51.5638 52.6156Z" fill="#28783C"/>
<path d="M22.8887 10H48.8887L50.3887 50H21.3887L22.8887 10Z" fill="#1D1D1D"/>
<path d="M22.8887 0H48.8887L50.3887 10H21.3887L22.8887 0Z" fill="#1D1D1D"/>
<path fill-rule="evenodd" clip-rule="evenodd" d="M45.8896 62H25.8896L10.8896 104.5H10.9019C11.3277 108.665 22.3519 112 35.8892 112C49.4264 112 60.4507 108.665 60.8764 104.5H60.8896L45.8896 62Z" fill="#1D1D1D"/>
</svg>
