<svg width="69" height="231" viewBox="0 0 69 231" fill="none" xmlns="http://www.w3.org/2000/svg">
<path d="M17 0.5H52C50 25.5 52 25.5 52 25.5H17C17 25.5 19 25.5 17 0.5Z" fill="#8A6C3E"/>
<path fill-rule="evenodd" clip-rule="evenodd" d="M50.5396 32.9197C50.2355 28.7376 46.7538 25.5 42.5607 25.5H26.4393C22.2462 25.5 18.7645 28.7376 18.4604 32.9197L15.2465 77.1103C15.089 79.2764 14.0575 81.2854 12.3891 82.6758L2.87852 90.6012C1.05458 92.1212 0 94.3728 0 96.747V222.5C0 226.918 3.58172 230.5 8 230.5H61C65.4183 230.5 69 226.918 69 222.5V96.747C69 94.3728 67.9454 92.1212 66.1215 90.6012L56.6109 82.6758C54.9425 81.2854 53.911 79.2764 53.7535 77.1103L50.5396 32.9197Z" fill="#367838"/>
<mask id="path-3-inside-1_265_80" fill="white">
<path d="M11.5 110C11.5 107.791 13.2909 106 15.5 106H53.5C55.7091 106 57.5 107.791 57.5 110V206.5C57.5 208.709 55.7091 210.5 53.5 210.5H15.5C13.2909 210.5 11.5 208.709 11.5 206.5V110Z"/>
</mask>
<path d="M11.5 110C11.5 107.791 13.2909 106 15.5 106H53.5C55.7091 106 57.5 107.791 57.5 110V206.5C57.5 208.709 55.7091 210.5 53.5 210.5H15.5C13.2909 210.5 11.5 208.709 11.5 206.5V110Z" fill="#C44444"/>
<path d="M15.5 114H53.5V98H15.5V114ZM49.5 110V206.5H65.5V110H49.5ZM53.5 202.5H15.5V218.5H53.5V202.5ZM19.5 206.5V110H3.5V206.5H19.5ZM15.5 202.5C17.7091 202.5 19.5 204.291 19.5 206.5H3.5C3.5 213.127 8.87258 218.5 15.5 218.5V202.5ZM49.5 206.5C49.5 204.291 51.2909 202.5 53.5 202.5V218.5C60.1274 218.5 65.5 213.127 65.5 206.5H49.5ZM53.5 114C51.2909 114 49.5 112.209 49.5 110H65.5C65.5 103.373 60.1274 98 53.5 98V114ZM15.5 98C8.87258 98 3.5 103.373 3.5 110H19.5C19.5 112.209 17.7091 114 15.5 114V98Z" fill="#9E783F" mask="url(#path-3-inside-1_265_80)"/>
</svg>
